<svg width="32" height="32" viewBox="0 0 32 32" fill="none" xmlns="http://www.w3.org/2000/svg">
<rect x="0.5" y="0.5" width="31" height="31" rx="4.5" stroke="url(#paint0_linear_212_111)"/>
<path d="M16.512 15.808C17.6 15.808 18.456 15.512 19.08 14.92C19.72 14.328 20.04 13.512 20.04 12.472C20.04 11 19.664 9.8 18.912 8.872C18.176 7.928 17.096 7.456 15.672 7.456C14.584 7.456 13.592 7.768 12.696 8.392V23.032L16.416 24.064L15.936 25.024H7.44V24.28L9.696 22.504V7.912L7.2 7.096L7.68 6.136H10.464C12.016 6.136 13.544 6.088 15.048 5.992C16.168 5.928 16.992 5.896 17.52 5.896C18.64 5.896 19.632 6.136 20.496 6.616C21.376 7.08 22.056 7.728 22.536 8.56C23.016 9.392 23.256 10.312 23.256 11.32C23.256 12.44 22.848 13.496 22.032 14.488C21.216 15.48 20.176 16.256 18.912 16.816C17.648 17.376 16.408 17.624 15.192 17.56L14.064 16.744L14.544 15.784H16.488L16.512 15.808Z" fill="#008CFF"/>
<defs>
<linearGradient id="paint0_linear_212_111" x1="0" y1="0" x2="32" y2="32" gradientUnits="userSpaceOnUse">
<stop stop-color="#001B60"/>
<stop offset="1" stop-color="#0095FF"/>
</linearGradient>
</defs>
</svg>
