<?xml version="1.0" encoding="utf-8"?>
<!-- Generator: Adobe Illustrator 12.0.0, SVG Export Plug-In . SVG Version: 6.00 Build 51448)  -->
<!DOCTYPE svg PUBLIC "-//W3C//DTD SVG 1.0//EN" "http://www.w3.org/TR/2001/REC-SVG-20010904/DTD/svg10.dtd" [
	<!ENTITY ns_svg "http://www.w3.org/2000/svg">
	<!ENTITY ns_xlink "http://www.w3.org/1999/xlink">
]>
<svg  version="1.0" xmlns="&ns_svg;" xmlns:xlink="&ns_xlink;" width="628.125" height="676.525" viewBox="0 0 628.125 676.525"
	 overflow="visible" enable-background="new 0 0 628.125 676.525" xml:space="preserve">
<g id="Calque_1">
	<g>
		<path fill="#FFFFFF" d="M529.125,126.425l-9-10.3l-2-6.6l-3.3-2.3l-12.4-2.8l-5,3.9l-3.1,0.1l-5.8-2.6l-0.2-0.1l-0.2-0.1l-3.6-3.1
			h-7.7l-1.4,3l-6,0.9h-0.3l-3.8-8.1h-0.1l-2,1.4l-2.3,3l-6.4-2.3l-2.1,2.2l0.9,9.8l-3.6,5.7l1.5,2.9l-4.6,4.1l2.4,10.1l-1.1,4.7
			l2.9,1.4l-0.6,4.4l-3.5,1.2l-1.3,6.6l3.6,5.2l0.6,4.5l3.8,5.9l18.9,11.6l-2.6,2.7l14.3,10.7l-2,9.6l6.2,5.1l0.3,3.6l3-1.2l1.4,2.8
			v0.1l9.1-6.4l7.9,4.7l6.4-1.8l5.5,4.1l5.7-2.5l9.4,7.4l1.1-0.7l3.1-2.7v-6.9l5.3-8.8l4.7-15.2l1.2-1l-5.8-2.6l1.5-11.2l-2.2-1.5
			l3.9,0.4l2.5-2l3.4-15l-4.9-3.7l-3.2-0.5l-1.6,2.8l-2.6-1.8l1.9-2.8l-6.1-2.8l5.4-12.1l1,3.1l10.1,5.3l10.1-0.4l1.6-2.9l1.5-4.7
			h-0.2l-9.3-8.5l-7.2,4.6l-7.7-1.3l-2.9,1.4l-2.5-4.4l-3.4-1.6l-3.2,1.8l-0.3,3.3L529.125,126.425z"/>
		<path fill="#FFFFFF" d="M539.125,143.625l6.1,2.8l-1.9,2.8l2.6,1.8l1.6-2.8l3.2,0.5l4.9,3.7l-3.4,15l-2.5,2l-3.9-0.4l2.2,1.5
			l-1.5,11.2l5.8,2.6l-1.2,1l-4.7,15.2l-5.3,8.8v6.9l-3.1,2.7l8.5,5.6l0.5,10.2l3.1-0.2l2.5,5.7l-0.5,0.1l3.3,0.7l-0.8,3.4h8.5
			l3-1.1l0.5-3.4l3.3-0.2l0.2-3.5l2.5-2.2l-3.2-8.7l3-17.3l-2.1-11.6l6.6-15.7l1.6-17.6l11.8-15.3l4.5-12l-9.7-3.4l-16.3-0.5l0,0
			l-1.5,4.7l-1.6,2.9l-10.1,0.4l-10.1-5.3l-1-3.1L539.125,143.625z"/>
		<path fill="#FFFFFF" d="M407.925,55.425l-4.6-5.5l-6.8,1.2l-6.1-1.5l-2.5,2.3l-2.4-10.2l-6.1-1.5l-1.3-3l-3.2,2.4l-3.6-1.2
			l-3.4-9.5l0.5-3.4l-4.4-5l-6.5,0.6l-6.3,4.4l-3.3-1.5l-3.2-5.9h-3.7l-1.5-3l1.2-6.4l-2.9-6.8l-3.1-1.8l-18.3,4.5l-15.3,4.8
			l-6.5,5.5l-0.1,20.3l3.3,4l-3.1-2l-0.8,6.6l0.5,4.3l2.6,1.8l13.7,1.2l1.1,3.4l8,6.5l13.4-2.9l-2.9,6.5l1.9,3.5l2.8-3.5l9.4,3.9
			l1-3.1l3.1,5.2l2.7-1.9l0.9,3.5l9.6-2l3.7,3l14.2-0.7l2.9-2.5l2.6,1.9l5.8-2l17.6,4.7v0.1l3.6-6.8l-3.4-6l2.3-7.2L407.925,55.425z
			"/>
		<path fill="#FFFFFF" d="M408.425,75.025l0.1-0.4l-17.6-4.7l-5.8,2l-2.6-1.9l-2.9,2.5l-14.2,0.7l-3.7-3l-9.6,2l-0.9-3.5l-2.7,1.9
			l-3.1-5.2l-1,3.1l-9.4-3.9l-2.8,3.5l-1.9-3.5l2.9-6.5l-13.4,2.9l-8-6.5l-1.1-3.4l-13.7-1.2l-4.2,1.6l-0.4,3.4l3.4,6.2l-3.1-1.7
			l-7.3,10l0,0l14.1,12l3.9,9.5l-3.5,5.2l1.5,9.9l-1.5,9l4,9.4l-4.5,2.9l1.8,3.6l6.3,1.2l7.1-2l10.3,2.5l2.5-1.9l12.2,7.2l7.7,1.1
			l2.3-2.4l2.8,1.8l9.1-3.3l3,0.8l2,2.8l-0.8,3.2l4.4,4.7l10.4,6.8l8.6-11.5l-2.8-1.5l1-3l-1.8-2.8l6.1-2.5l-3.6-9l1.4-3l8.9-4.4
			l6,2l1.1-3.2l-0.3-16l3.1-0.3l5.6-8.1l-1.5-3.5l1.5-3.9l-0.9-6.4l-0.4,0.1L408.425,75.025z"/>
		<path fill="#FFFFFF" d="M412.925,76.325l0.9,6.4l-1.5,3.9l1.5,3.5l-5.6,8.1l-3.1,0.3l0.3,16l-1.1,3.2l-6-2l-8.9,4.4l-1.4,3l3.6,9
			l-6.1,2.5l1.8,2.8l-1,3l2.8,1.5l-8.6,11.5l-0.5,2.2l-2.8,2.5l3.9,9.3l2.9,1.9l-3.4,5.6l-3.3,0.8l0.5,9.6l4.1,1.6l5,6.3l2.8,9.3
			l2.2-2.5l4.1,4.7l5.6,12.3l14.1-1.8l3.3,1.5l2.5-2.2l6.9-1l5.3-4.4l4.3,0.6v-0.1l3.9,0.8l0.6,3.1l3,1.1l-0.4,3.2l3.3,0.4l1.9,2.4
			l1.2,3.5l-3.1,2.8l2.5,5.3l10.4,2.3l3.4,1.7v3.2l5.4-2.1l1.3-2.8l7.4-4.4l2.5,2l3.4-1.1l0.3-9.4l2.4-2.7l3.2,0.4l2.5-3.6l-0.2-1.6
			v-0.1l-1.4-2.8l-3,1.2l-0.3-3.6l-6.2-5.1l2-9.6l-14.3-10.7l2.6-2.7l-18.9-11.6l-3.8-5.9l-0.6-4.5l-3.6-5.2l1.3-6.6l3.5-1.2
			l0.6-4.4l-2.9-1.4l1.1-4.7l-2.4-10.1l4.6-4.1l-1.5-2.9l3.6-5.7l-0.9-9.8l2.1-2.2l6.4,2.3l2.3-3l2-1.4l-3.6,0.3l0.1-3.6l-6.8-1.6
			l-7.6-6.7l-6.6,0.2l1-7.3l-3.2-6.4v-4.7l3-5.6l-3.1-1.8l-4.5,4.8l-2,7.2l-9.8,4.4l-6-2L412.925,76.325z"/>
		<path fill="#FFFFFF" d="M347.325,139.025l-7.7-1.1l0.3,2.3l-2,2.6l-0.1,0.1c-0.7,0.5-1.5,1-2.3,1.6c-1,0.7-2,1.4-3,2.1l-2.9-1.2
			l-3.7,1.5l1.5,2.2l-0.1,1.2l0.3,3.4l2.3-1.6v-2.2h5.7l5.4,2.5l5.1,5v3.6l-1.8,4.9h0.2l5.4,2.3l3.9,0.3v4.7l-1.2,0.7l-2.4-3.4h-4.9
			l-0.5,1.5h-5.2v0.8h-1.8l-2.8,12.4l-3.9,5.3l0.8,3.5l4.7,4.8l-0.6,3l-3,1.7l10.3,0.8l12.6-3l4.3-6l0.3-6.6l17.3-3.4l-0.5-9.6
			l3.3-0.8l3.4-5.6l-2.9-1.9l-3.9-9.3l2.8-2.5l0.5-2.2l-10.4-6.8l-4.4-4.7l0.8-3.2l-2-2.8l-3-0.8l-9.1,3.3l-2.8-1.8L347.325,139.025
			z"/>
		<path fill="#FFFFFF" d="M339.925,140.225l-0.3-2.3l-12.2-7.2l-2.5,1.9l-10.3-2.5l-7.1,2l-6.3-1.2l-1.8-3.6l-4.5,10.6h-4.2
			l-2.6,2.8l2,6.6l4.1,7.4l0.5,12.2l7,6.1l1.4,6.3l2.4,2.4l3.5-0.7l3.2,11.9l0,0l7.8-0.9l2.2-3.1l1.6,2.9l3.1-1.9l4.2,0.6l3.9-5.3
			l2.8-12.4h-6.4l-4.3-4.3l-5.2-2v-1.7h-4.5l-2.1-1.7l-0.1-0.7c-0.1-0.4-0.1-0.7,0-1.1l-0.1-0.3l0.1-0.1l3-3.7h4.4l1.6-1
			c0.3-0.3,0.5-0.4,0.8-0.6l2.6-1.9l-0.3-3.4l0.1-1.2l-1.5-2.2l3.7-1.5l2.9,1.2c1-0.7,2-1.4,3-2.1c0.8-0.6,1.6-1.1,2.3-1.6l0.1-0.1
			L339.925,140.225z"/>
		<path fill="#FFFFFF" d="M335.625,149.925h-5.7v2.2l-2.3,1.6l-2.6,1.9c-0.3,0.2-0.5,0.3-0.8,0.6l-1.6,1h-4.4l-3,3.7l-0.1,0.1
			l0.1,0.3c-0.1,0.4-0.1,0.7,0,1.1l0.1,0.7l2.1,1.7h4.5v1.7l5.2,2l4.3,4.3h6.4h1.8v-0.8h5.2l0.5-1.5h4.9l2.4,3.4l1.2-0.7v-4.7
			l-3.9-0.3l-5.4-2.3h-0.2l1.8-4.9v-3.6l-5.1-5L335.625,149.925z"/>
		<path fill="#FFFFFF" d="M448.425,218.225l-3.3-0.4l0.4-3.2l-3-1.1l-0.6-3.1l-3.9-0.8v0.1l-4.3-0.6l-5.3,4.4l-6.9,1l-2.5,2.2
			l-3.3-1.5l-14.1,1.8l-5.6-12.3l-4.1-4.7l-2.2,2.5l-2.8-9.3l-5-6.3l-4.1-1.6l-17.3,3.4l-0.3,6.6l-4.3,6l7.5,8.4l0.5,6.5l-5.2,5.5
			l1.2,3.3l-1.7,2.7l-6,3.7l3.4,3.2l2.4,7.8l-3.1,0.7l-1.7,2.7l2.2,7.3l-1.9,6.5l3.1,2.4l3.5,8.5l0.3,6.6l2.5,2.2l-0.3,6.6l-1.5,10
			l0,0l6.5,7.1l7.2,0.2l3.2-2l4.8,4.2l6.7-6.8l7.5,15.2l8.9,3.3l1.8,2.7l-0.5,6.1l-4.2,5.2v3.4l5.8,3.7l9-1.7l2.3,2.4l6.4-4.3
			l0.4-3.4l2.6-2.1l2.4,2l2.6-1.9l2.7,1.7l1.8-2.6l6.5,8.7l6.6-23.5l6.6,1.7l6-1.4l5.4,3.6h0.1l3.1-1.2l-1-5.9l3.2-5.6l-2.4-9.8
			l-2.8-1.8l5.6-4.2l-9.3-4.9l-0.5-3.4l1.2-4.5l7-7.6l2-9.3l1.3-1.4l-4.3-9.2l-3-1.6l5.3-4.6l-0.2-3.5l-2.3-3.5l-3,1.9l-5.4,2.1
			v-3.2l-3.4-1.7l-10.4-2.3l-2.5-5.3l3.1-2.8l-1.2-3.5L448.425,218.225z"/>
		<path fill="#FFFFFF" d="M470.125,237.325l3-1.9l2.3,3.5l0.2,3.5l-5.3,4.6l3,1.6l4.3,9.2l-1.3,1.4l-2,9.3l-7,7.6l-1.2,4.5l0.5,3.4
			l9.3,4.9l-5.6,4.2l2.8,1.8l2.4,9.8l-3.2,5.6l1,5.9l-3.1,1.2l4.7,8.7h3.3l0.1,3.4l3.3-0.1l4.5-5l3.8,1.8l0.5,3.2l4.3-0.3l6.1-3.6
			l5.3-7.3l-0.2-0.2l3-10.1l0.1-0.2l0.9-3.2l13.2-12.1l-1-10.9l9.7-6.7l13.1-16.2l-0.2-3.2l2.6-2.4l-4.8-4l1-3.4l0.3-0.2l4-4.5
			l0.3-0.1l0.1-0.1l4.4-0.5l-2.5-5.7l-3.1,0.2l-0.5-10.2l-8.5-5.6l-1.1,0.7l-9.4-7.4l-5.7,2.5l-5.5-4.1l-6.4,1.8l-7.9-4.7l-9.1,6.4
			l0.2,1.6l-2.5,3.6l-3.2-0.4l-2.4,2.7l-0.3,9.4l-3.4,1.1l-2.5-2l-7.4,4.4L470.125,237.325z"/>
		<path fill="#FFFFFF" d="M358.225,227.725l1.7-2.7l-1.2-3.3l5.2-5.5l-0.5-6.5l-7.5-8.4l-12.6,3l-10.3-0.8l3-1.7l0.6-3l-4.7-4.8
			l-0.8-3.5l-4.2-0.6l-3.1,1.9l-1.6-2.9l-2.2,3.1l-7.8,0.9l0,0l-3.2-11.9l-3.5,0.7l-2.4-2.4l-1.4-6.3l-7-6.1l-0.5-12.2l-4.1-7.4
			l-6.8,7.8l0.3,3.1l-6.7,1.5l-3.2-1.8l-6,3.6l-6.7,1.2l-2.6,2.8v3.7l5.4,4.9l-0.2,5l0.6,5.2l-8.4,5.8l1.1,8.4l0,0l2.4,4.3l-0.4,2
			v0.1l-2.3,2.3l1.9,2.5l0.4,6.3l-7,11.9l-3.6,1.2l-0.7,3.8v0.1l-8.6,5l-3.1-0.3l0.5,3.7l-6.8-2.9l-0.9,2.7l-1.8,10.4l-6.5,17.2v0.1
			l6.1,3.6l0.4,3.6l3.2-0.3l1.5,6.8l3.2,1.6l11.2-0.5l-1.6-3.2l6,3.3l0.2,3.5l10.3,14.7l-0.8,6.5l5.2,4.9h3.3l2.8,6.1l2.9,1.4
			l-1.7,3.1l2.9,1.3l6.5-1.2l1.9,2.7l3.2-3.2l12.8-1.2l2.2-2.8l14.8,3l3.1-0.9l5.5,0.2v-0.1l3.9-6.6l9.8-1.1l1.9-2.7l-1.9-6l2.5-2.1
			l9.5-3.3l5.4-4.1h4.5l1.5-10l0.3-6.6l-2.5-2.2l-0.3-6.6l-3.5-8.5l-3.1-2.4l1.9-6.5l-2.2-7.3l1.7-2.7l3.1-0.7l-2.4-7.8l-3.4-3.2
			L358.225,227.725z"/>
		<path fill="#FFFFFF" d="M382.825,305.425l-4.8-4.2l-3.2,2l-7.2-0.2l-6.5-7.1l0,0h-4.5l-5.4,4.1l-9.5,3.3l-2.5,2.1l1.9,6l-1.9,2.7
			l-9.8,1.1l-3.9,6.6v0.1l1.2,4.4c2.8,1.8,5.6,3.6,8.3,5.4l4.1,9.4l-0.6,4.6l2.6,7.6l-10.5,9.7l5,6.1l1.4,6.2l-2,2.8l2.2,15.7
			l-7-2.2l-0.7,3.8l-8.5,10.7l2,2.5l-2.6,2.1l-0.3,3.9l-3.5,1.3l1.7,3.7l-3.7,2.1l1.1,6.2l4.3,6.7l-2,6.5l3.7,5.6l5.8-3.6l7.1,1.8
			l4.3-5.5l3.4-10.2l5.3-4.8l5.9,4.6l1.4,4.7l2.7,1.8l-0.6,3.4l2.9,5.7l7.7-17.8l2.1,2.5l8.7-7.5l2.6,1.9l1.6,6.4l7.2,1.4l0.2-3.2
			l3.2,0.3l10.1,8.6l7.5-7.2l6.7-2.1l3.8-6.7l3.8-0.4l-0.8-3.2l3-2.5l1.7-5.9l2.9,1.4v-3.5l1-4.7l-2.5-2.6l-3,1.1l-0.7-6.2l-6.7-2.5
			l-7.1,3.4l-3.1,0.5l-2.6-2.3l-3.1,0.9l3.3-8l-3-8.4l-5.1-4.2l-5.3-8.7l2.4-7l-2.8-3.1l6.2-5.3l-1.7-14.1l0.5-3.3l4.4-1.5l4.2-5.2
			l0.5-6.1l-1.8-2.7l-8.9-3.3l-7.5-15.2L382.825,305.425z"/>
		<path fill="#FFFFFF" d="M325.525,321.925L325.525,321.925l-5.5-0.2l-3.1,0.9l-14.8-3l-2.2,2.8l-12.8,1.2l-3.2,3.2l-1.9-2.7
			l-6.5,1.2l-2.9-1.3l-1-0.3l-1.4,2.7l-3.8-0.9l-1.3,3.3l-6.4,3.1l-3.3,5.6l-0.2,9.6l5.2,4l-0.7,3.6l-2.9,1.2l-4.5,9l-3,0.7
			l-3.9,4.3h0.1l7,3.4l-0.1,5.3l10.7-1.3l8,6.3l-2.3,3.1l6.5,2.4l3.1,5.3l-4,5.2l2,3.3l-2.3,2l2.6,1.7l0.2,3.4l3.7,0.8l3.8,7.8
			l9.2-0.8l7.5,6.8l5.9-3l7.6,0.1l3.7-2.1l-1.7-3.7l3.5-1.3l0.3-3.9l2.6-2.1l-2-2.5l8.5-10.7l0.7-3.8l7,2.2l-2.2-15.7l2-2.8
			l-1.4-6.2l-5-6.1l10.5-9.7l-2.6-7.6l0.6-4.6l-4.1-9.4c-2.7-1.8-5.5-3.6-8.3-5.4L325.525,321.925z"/>
		<path fill="#FFFFFF" d="M470.225,317.425h-0.1l-5.4-3.6l-6,1.4l-6.6-1.7l-6.6,23.5l-6.5-8.7l-1.8,2.6l-2.7-1.7l-2.6,1.9l-2.4-2
			l-2.6,2.1l-0.4,3.4l-6.4,4.3l-2.3-2.4l-9,1.7l-5.8-3.7v-3.4l-4.4,1.5l-0.5,3.3l1.7,14.1l-6.2,5.3l2.8,3.1l-2.4,7l5.3,8.7l5.1,4.2
			l3,8.4l-3.3,8l3.1-0.9l2.6,2.3l3.1-0.5l7.1-3.4l6.7,2.5l0.7,6.2l3-1.1l2.5,2.6l3.9-0.8l3.6-5.5l5.6-3v-5l-0.2-1.2l0,0l5-4.5
			l-2.1-2.8l2.8-2.8l7.8-1.7l2.8-5.5l-0.4-8l6.8,2.2l3.4-5.7l3.2-0.8l12.4,17.1l6.5-7.6l2.5-15.2v-0.1l-0.8-10.4h3.2l3.1-3.2h-0.3
			v-0.1l0.6-5.6l6.5-4l1.2-7.8l-3.9-2.2l-5.3,7.3l-6.1,3.6l-4.3,0.3l-0.5-3.2l-3.8-1.8l-4.5,5l-3.3,0.1l-0.1-3.4h-3.3
			L470.225,317.425z"/>
		<path fill="#FFFFFF" d="M459.325,375.125l-7.8,1.7l-2.8,2.8l2.1,2.8l-5,4.5l0,0l0.2,1.2v5l-5.6,3l-3.6,5.5l-3.9,0.8l-1,4.7v3.5
			l-2.9-1.4l-1.7,5.9l-3,2.5l0.8,3.2l-3.8,0.4l-3.8,6.7l-6.7,2.1l-7.5,7.2l2.3,10.2l7.9,16l8.7,5.6l7.9-4.9l0.2,3.5l2.8-2.6h3.1
			l6.8,3.9l-0.1-4.1l6.5,0.7l4,4.8l9.7-4.4l2.7,1.6l2.9-2.5l0.5,6.5l10.5,1l0.2,3.2l5.8,2.5l4.8-5.3l2.6-0.1l1.1-0.3l0.2-5.2
			l-11.2-6.4l-1.7-3l3.7-5.7l4.6,1.6l2.8-2.9l-3.3-2.4l2.8-7.6l6.4-0.4l0.4-3.8l1.1-3.5l6.1-1.3l1.1-3.2l14.1-4.3l3.5,1.2l0.4-6.5
			l-4.9-3.5l-2-4.7l1.8-4.3l8.7,4l2.2-2.3l6.9-1.3v-0.1l21.6-9.3l2.3-4l-1.3-3l3.1-5.8l-8.2-5.7l-2.5-6.2l0.8-3.5l-6.3-2.6l-3.2-3
			l-0.6-3.4v-0.2l0.2-0.2l9.3-9l1.1-3.5l-3.8-5.1l-8.8-8.3l2.7-7l-4.2-6l0.5-3.2l-3.7-0.8l-9.5,0.7l-5.6,4.7l-3.9-1.7l-3.2,6.6
			l2.7,3.4l-7.8,6l-7.6,1.1l-3.1,3.2h-3.2l0.8,10.4v0.1l-2.5,15.2l-6.5,7.6l-12.4-17.1l-3.2,0.8l-3.4,5.7l-6.8-2.2l0.4,8
			L459.325,375.125z M463.725,460.525l-2.7,4l-4.5,1.4l-2.2-2.5l1.4-3.5l3-2.5L463.725,460.525z"/>
		<path fill="#FFFFFF" d="M461.025,464.525l2.7-4l-5-3.1l-3,2.5l-1.4,3.5l2.2,2.5L461.025,464.525z"/>
		<path fill="#FFFFFF" d="M285.425,69.425l-0.2,0.3l-12.2,8.5l-24.8,6.2l-16,8.6l-6.5,14.2l1.9,2.5l9.9,2.2l0.3,0.1l-1.8,0.6v0.1
			l0.4,9.8h3.1l-2.5,2.4l3.1,10.5l-1.6,3.3l2.6,4.7l-0.7,2.5l0.1,3.5l7.1,0.6l8.8,10.7l-1.9,2.5l3.9,2.3l2.6-2.8l6.7-1.2l6-3.6
			l3.2,1.8l6.7-1.5l-0.3-3.1l6.8-7.8l-2-6.6l2.6-2.8h4.2l4.5-10.6l4.5-2.9l-4-9.4l1.5-9l-1.5-9.9l3.5-5.2l-3.9-9.5L285.425,69.425z"
			/>
		<path fill="#FFFFFF" d="M202.425,118.225l-14.1-1.5l-10.7-3.7l-5.8,2.5v0.1l-0.2,0.1l-7.2-12l2.7-8.7l-1.1-3.1l-7.3-0.8l-2.8,2
			l-7.3,0.5l-12.8-5.2l-0.2,3.1l3.7,2.1l0.5,5.5l-2.1,2.3l2.9,11.5l9.5,10.2l-1.5,11.3l2.2,3.1l-0.6,6.8l-2.5,6.4l4.6,10.6l3,1.4
			l2.8-1.8l-1.1,3.3l-8,0.8l5.4,10.8l3,1l7.9-5.3l6.2,2.6l9.7,0.9l3.7,4.1l2.7-1.7l2.8,1.9l7.6-3.7h10.2l0.8-3l3.1,0.2l2.2,6.8
			l3.6,1.7v3.3l3.4,0.1l12.3-6.5l3.1,1.7l1.8,9.4l8.1,5.6l3.2-1.1l3.6,3.9l3.5,0.8l0,0l-1.1-8.4l8.4-5.8l-0.6-5.2l0.2-5l-5.4-4.9
			v-3.7l-3.9-2.3l1.9-2.5l-8.8-10.7l-7.1-0.6l-0.1-3.5l0.7-2.5l-2.6-4.7l1.6-3.3l-3.1-10.5l2.5-2.4h-3.1l-0.4-9.8h-0.2l-7.7,1.8
			l-5.4,4.7l-10.9,3L202.425,118.225z"/>
		<path fill="#FFFFFF" d="M165.325,171.525l-7.9,5.3l-3-1l-5.4-10.8h-0.2l-12.6,0.1l0.3-6.3l-3.7,0.8l-4.5,4.3l2.7,5.8l0.2,0.4v0.1
			l-2.6-2.1l-0.1-0.1l-1.9-4.9h-3l-0.2,1.9v0.2l-4.6,0.4l-1.1-3.5l-3.4,1.6l-1.2-2.9l-4,0.3l-12.1,10l-1-4.1l-4.5-2.9l-0.1-3.5
			l-5.1-8.8l-3.3-0.7l0.7-3.2l-3.4,0.4l-1.8,3.4l1.4-7.5l-5.3,3.6l-0.6-4l-10,4.1l-1.6-2.7l-5,4.1l-0.3,6.9l-3.6,0.6h-0.2l-5.4-3.4
			l-3.2,0.7l-0.7,3.8l-2.5-3l-1.8,3.6l-0.1-7.3l-16.2,4.8l-1.7-2.9l-11.4,6.2l2.9,1.5l-9.4-0.9l-2.1,2.7l-1.6,10l2,2.6l3-1.2l3,1.3
			l13.8-4.1l-4.2,2l-0.6,3.8l6.7-1.7l-0.5,3.3l3.3,1.4l-3.5,0.7l7,3l-6.6-1.6l-1.5-2.8l-4.3,1.2l-6.5-1.3l-1.9-2.7l-1.7,4.1l2.8,5.9
			l1.9-3.1l3.1,0.3l6.1,3.5l1,3.6l-1.8,2.8l-2.8-1.5l-14.1,1.4l-1.7,2.8l10.7,4l4.1,7l-1.1,6.2l8.2,0.7l4.1-4.7v-0.4v-0.1l-0.9-3.2
			l1.2-0.2l0.4-3.5l1.6,3.2l-2,0.3l-0.3,3.5l3.4,2.2l5.1-1.9l5.3,6.7l3.2-0.7v-3.2l0.4,3.1v0.1l2.9-1.1l-0.7,3.2l3.3,0.7l4.2-1.7
			l0.2-3.4l0.8,8.6l2.9,1.8l3-1.5v-0.1l-0.5-6.5l0.6,3.4l3.3,0.6l-2.4,2.4l1.7,3l4.1,1.7l3-1.3l-2.7,1.4l0.3,3.1l2.4,3.2l-0.9,4.1
			l2.4,2.6l-1.4-3.2l3.1-2.7l3.6-0.8l2.8,2l-1.4-6.6l3.4,5.5l1.7-2.9l4.2,0.7l2.3,2.7l-2.2,2.8l-7-0.9l5.3,4.2l13.9-1.1l3.1,1.7
			l-3.4,0.2l1.8,2.9l17.3-5.1l0.4-6.7l5.9-3.8l14.7-0.5l1.8-3.2l10.1-4.4l7.7,4l0.5-2.4l4-9.7l6.2-2.5l-2.1-19.5l1.7-2.6l0.1-13.6
			L165.325,171.525z"/>
		<path fill="#FFFFFF" d="M184.925,179.125l-3.7-4.1l-9.7-0.9l-0.1,13.6l-1.7,2.6l2.1,19.5l-6.2,2.5l-4,9.7l-0.5,2.4l-7.7-4
			l-10.1,4.4l-1.8,3.2l-14.7,0.5l-5.9,3.8l-0.4,6.7l-17.3,5.1l-5,4.9l2.7,6.9l6.8,1.1l2.3,2.3l5.6-4.1l8-0.7l-7.6,2.9l-0.7,7.4
			l-3.4,1.5l6.7,2.4l5.4,5.6l-8.8,9.3l0.5,5l11.7,13.7l2.3,7.9l9.1,7.6l5.4,1.2l1.8,4l6.7,1.3l5.3,4.3l0.7-3.1l3.2,0.4l9.9-3.8
			l-1.5,3.3l7.2-0.3l2.7,2l10.2-5.1l-2.8-2.1l0.3-8.4l-5.4-20.1l-4.7-4.7l-2.5-6.3l13.7-1l4.2-5.3l6.3-0.8l10.9-0.3l2.5,2.6l7.5-6.7
			v-0.1l6.5-17.2l1.8-10.4l0.9-2.7l6.8,2.9l-0.5-3.7l3.1,0.3l8.6-5v-0.1l0.7-3.8l3.6-1.2l7-11.9l-0.4-6.3l-1.9-2.5l2.3-2.3v-0.1
			l0.4-2l-2.4-4.3l-3.5-0.8l-3.6-3.9l-3.2,1.1l-8.1-5.6l-1.8-9.4l-3.1-1.7l-12.3,6.5l-3.4-0.1v-3.3l-3.6-1.7l-2.2-6.8l-3.1-0.2
			l-0.8,3h-10.2l-7.6,3.7l-2.8-1.9L184.925,179.125z"/>
		<path fill="#FFFFFF" d="M123.425,165.025l0.2-1.9h-0.1L123.425,165.025z"/>
		<path fill="#FFFFFF" d="M199.525,273.325l-6.3,0.8l-4.2,5.3l-13.7,1l2.5,6.3l4.7,4.7l5.4,20.1l-0.3,8.4l2.8,2.1l-10.2,5.1l-2.7-2
			l-7.2,0.3l1.5-3.3l-9.9,3.8l-5.1,10.9l3.3,1l4.6,9l-3.1,0.5l1.8,6l-3.3,6.5l-5.3,3.7l1.4,4.7l8.8,5.5l11.7,12.6l2.4,8.4l6.6-0.9
			l0.7,3.2l7.2,1.9l0.6,6.5l6.9,4.8l10.6,1.1l0,0l2.3-5.5v-0.6l0,0h0.1l2.2-2.1l6.2-0.9l4.5-6.4l0.9-6.5l8.8-6.6l2.4-5.9l6.4-6.9
			h-0.1l3.9-4.3l3-0.7l4.5-9l2.9-1.2l0.7-3.6l-5.2-4l0.2-9.6l3.3-5.6l6.4-3.1l1.3-3.3l3.8,0.9l1.4-2.7l1,0.3l1.7-3.1l-2.9-1.4
			l-2.8-6.1h-3.3l-5.2-4.9l0.8-6.5l-10.3-14.7l-0.2-3.5l-6-3.3l1.6,3.2l-11.2,0.5l-3.2-1.6l-1.5-6.8l-3.2,0.3l-0.4-3.6l-6.1-3.6l0,0
			l-7.5,6.7l-2.5-2.6L199.525,273.325z"/>
		<path fill="#FFFFFF" d="M245.525,369.925L245.525,369.925l-6.4,6.9l-2.4,5.9l-8.8,6.6l-0.9,6.5l-4.5,6.4l-6.2,0.9l-2.2,2.1h-0.1
			v0.6l-2.3,5.5l0,0l-10.6-1.1l-6.9-4.8l-0.6-6.5l-7.2-1.9l-0.7-3.2l-6.6,0.9l0.6,3.1l-2.4,3.8l-2.8-8.8l-12-11.8l-1.1-3.2l-3.3,6.5
			l-6.9,56.3l4.4-8.7l5,5.8l0.3,3.2l-7.2-1l-3.6,7.7l0.1,5.3l-12.4,56.2l-4.2,8l-5.2,7.1l-7.1,5.2l6.5,3l0.6,3.5l2.5-2.3l7.4,1.5
			l1.6,3.2l-2.1,6.6l-3,2.6l1.5,3.2l4.4,1l0.5-4l3.3-1l0.3,3.7l6.5,3.6l10.9,4.2l7-0.4l3,5.3l8.8,7.2l2.6-1.9l2.6,1.6l6.7-3.4h0.1
			l1.4-9.7l1.8-3.1l3.8-0.9l-0.5-3.3l9.1-10.4l-0.9-3.5l3-1.5l-0.6-8.2h-3.2l1.6-3.1l-2.7-6.5l-0.1-0.1l-7.4-0.3l-1.7-3l4.7-12.5
			l-0.5-7.1l10.4-3.1l0.8,3.4l2.8-1.5l0.4-3.3v-0.1l4.2,0.8l1.5-2.8l9.4,0.8l5.6-3.2l9.6,1.1l3-1.5l4.1-5.3l3.1,0.3l-1.5-3.1l5-6.2
			l-2.8-1.5v-3.3l8.5-2.2l-3-10.3l3.9-3.5l5.1-7.2l6.9-3.9l-0.7-4l5.1-3.6l1.5-6l0.7-5.6l-3.8-7.8l-3.7-0.8l-0.2-3.4l-2.6-1.7l2.3-2
			l-2-3.3l4-5.2l-3.1-5.3l-6.5-2.4l2.3-3.1l-8-6.3l-10.7,1.3l0.1-5.3L245.525,369.925z"/>
		<path fill="#FFFFFF" d="M284.425,418.625l-0.7,5.6l-1.5,6l-5.1,3.6l0.7,4l-6.9,3.9l-5.1,7.2l-3.9,3.5l3,10.3l-8.5,2.2v3.3l2.8,1.5
			l-5,6.2l1.5,3.1l-3.1-0.3l-4.1,5.3l-3,1.5l-9.6-1.1l-5.6,3.2l-9.4-0.8l-1.5,2.8l-4.2-0.8v0.1l-0.4,3.3l-2.8,1.5l-0.8-3.4
			l-10.4,3.1l0.5,7.1l-4.7,12.5l1.7,3l7.4,0.3l0.1,0.1l2.7,6.5l-1.6,3.1h3.2l0.6,8.2l-3,1.5l0.9,3.5l-9.1,10.4l0.5,3.3l-3.8,0.9
			l-1.8,3.1l-1.4,9.7v0.1l12.6,11.2l13.7-1.9l2.8,2.3l18.2,0.3l2.5-2.5l-0.4-7.4l2.8-1.4l18.7,5.5l5.4,4.9l7.1-0.5l6.5,8.5l1.2-3.3
			l3.7-0.2l11.9,5.7l-0.1,0.1l10-3l1.4-2.9l8.3-0.2l-5.4-6.3l-3.7,1.3l-3.8-1.6l-1-6.5l3.7-0.7l1.4-3.3l-2.8-2.8l2.5-2.6l-0.2-3.4
			l-2.5-6l-9.7-4.3l-2.6-6.2l9.5-11.2l1.5,3l6-2l0.4-0.9l2,2.6l7.1,1l1.3-3.7l3.2-0.5l13.4,1.5l3.8-2.3l1-3.3l-0.8-10.9l6.8,2.4
			c2.6-1.6,5.1-3.2,7.7-4.8l6.3,0.1l0.2-9.8l7,1.4l3.4-6l4.2-1.1l-0.4-1.7l4.9-5.9l-9.4-4.6l3-1.3l2.3-4.3l-10.5-5l-1.8-2.8l0.7-9.7
			l-3.3-9.9l-4.8-5.1v-0.1l-2.9-5.7l0.6-3.4l-2.7-1.8l-1.4-4.7l-5.9-4.6l-5.3,4.8l-3.4,10.2l-4.3,5.5l-7.1-1.8l-5.8,3.6l-3.7-5.6
			l2-6.5l-4.3-6.7l-1.1-6.2l-7.6-0.1l-5.9,3l-7.5-6.8L284.425,418.625z"/>
		<path fill="#FFFFFF" d="M297.825,545.725l9.7,4.3l2.5,6l0.2,3.4l-2.5,2.6l2.8,2.8l-1.4,3.3l-3.7,0.7l1,6.5l3.8,1.6l3.7-1.3
			l5.4,6.3l-8.3,0.2l-1.4,2.9l-10,3l-2,5.3l9.8,3l2.6,6.4l3.7,0.2l4.9-4.5l3.6-0.2l10.6,2.4l5.1,4l7.1-0.5v-3.3l9.1-4.8l7-1.2
			l9.7,2.6l-6.5-8.1l-0.4-19.7l0.5-11.1l6.3-12l3-3.1l6.1-4.5h7.7l7.4-8.2l12.3-8.9l9.4-2.6l0.1,0.1l0,0l3.2,5.4l3.4,0.8h0.2
			l4.3-6.7l6.5-1.9l-1.1-3.1l4.7-5.4l3.7,1l2.1-11.9l9.5-10.2l-7.1-7.2l-0.2-6.1l-2.9-5.1l-6.8-3.9h-3.1l-2.8,2.6l-0.2-3.5l-7.9,4.9
			l-8.7-5.6l-7.9-16l-2.3-10.2l-10.1-8.6l-3.2-0.3l-0.2,3.2l-7.2-1.4l-1.6-6.4l-2.6-1.9l-8.7,7.5l-2.1-2.5l-7.7,17.8v0.1l4.8,5.1
			l3.3,9.9l-0.7,9.7l1.8,2.8l10.5,5l-2.3,4.3l-3,1.3l9.4,4.6l-4.9,5.9l0.4,1.7l-4.2,1.1l-3.4,6l-7-1.4l-0.2,9.8l-6.3-0.1
			c-2.6,1.6-5.1,3.2-7.7,4.8l-6.8-2.4l0.8,10.9l-1,3.3l-3.8,2.3l-13.4-1.5l-3.2,0.5l-1.3,3.7l-7.1-1l-2-2.6l-0.4,0.9l-6,2l-1.5-3
			l-9.5,11.2L297.825,545.725z"/>
		<path fill="#FFFFFF" d="M553.625,444.225l1.5-6.7l0.3-0.4l2-2.3l4,0.1l-4.3-10.5l-6.8-0.3l-5.8-3.8l-0.9-7.4l-3.1-0.1l-2.6-5.8
			l0,0l-6.9,1.3l-2.2,2.3l-8.7-4l-1.8,4.3l2,4.7l4.9,3.5l-0.4,6.5l-3.5-1.2l-14.1,4.3l-1.1,3.2l-6.1,1.3l-1.1,3.5l-0.4,3.8l-6.4,0.4
			l-2.8,7.6l3.3,2.4l-2.8,2.9l-4.6-1.6l-3.7,5.7l1.7,3l11.2,6.4l-0.2,5.2l-1.1,0.3l-2.6,0.1l-4.8,5.3l-5.8-2.5l-0.2-3.2l-10.5-1
			l-0.5-6.5l-2.9,2.5l-2.7-1.6l-9.7,4.4l-4-4.8l-6.5-0.7l0.1,4.1l2.9,5.1l0.2,6.1l7.1,7.2l-9.5,10.2l-2.1,11.9l-3.7-1l-4.7,5.4
			l1.1,3.1l-6.5,1.9l-4.3,6.7l16.1,0.5l2.2,2.8l-0.6,3.1l4.2,0.9l10.9-1.1l-2.5-2.7l1.4-2.8l3.1,0.3l5.1,6.1l14.9-1.7l4.4,9.9
			l10.9,2.6l3.1-0.9l0.2,0.2l0.4-3.8l2.9-2.2l-2.6-7l1.3-3l3.1-0.5l-6.2-10.2l2.2-6l3.7-0.9l-2.2-4.3v-0.1l0.2-0.4l5.9,0.3l3.1-2
			l4.4,5.4l11.4-9.5l6.6,4l1.4-3.9l10.9-0.5l3.5-1.6l-1.5-2.9l5.9-4.4l5.8,0.8l-7.8-8.7l-4.8-9.5l2.2-6.1l6.9-7.7l-0.2-0.2l2.1-5.5
			l-4.4-6.1L553.625,444.225z"/>
		<path fill="#FFFFFF" d="M567.625,467.725l-7.1-1.4l-6.9-8.3l-6.9,7.7l-2.2,6.1l4.8,9.5l7.8,8.7l-5.8-0.8l-5.9,4.4l1.5,2.9
			l-3.5,1.6l-10.9,0.5l-1.4,3.9l-6.6-4l-11.4,9.5l-4.4-5.4l-3.1,2l-5.9-0.3l-0.2,0.5l2.2,4.3l-3.7,0.9l-2.2,6l6.2,10.2l-3.1,0.5
			l-1.3,3l2.6,7l-2.9,2.2l-0.4,3.8l6.9,4l-0.4,3.1l10-2.9l6.7,1.8l1.3,3.2l2.2-6.2l8.4,1.4l0.1-3.2l6.3-1.4l3-2.8l4.2,0.4l2.5-6.1
			l-3.9-1.8l6.9-9.2l6-0.8l2.2-3.7l0.1-0.2l2.6-4.7l6.5-3l1.2-4.7l16.2-8.8l0.5-8.2l7-9.6l2.3-4.9l-4.5-6l-13.4,4.8L567.625,467.725
			z"/>
		<path fill="#FFFFFF" d="M66.025,251.625l3.7,1.1l4.3-1.4l-5.6-3.8l-3.2,0.4L66.025,251.625z"/>
		<path fill="#FFFFFF" d="M110.725,273.725l-2.1,2.5l6.8,6.6l-0.2-3.6l-3.4-2.1L110.725,273.725z"/>
		<path fill="#FFFFFF" d="M145.725,331.625h0.1l-0.1,0.1l5,4.5l3.3-1.4l-6.1-3.9L145.725,331.625z"/>
		<path fill="#FFFFFF" d="M144.225,332.125l0.6-0.2l0.8-0.2l-2.5-2.3L144.225,332.125z"/>
		<path fill="#FFFFFF" d="M155.925,349.025l-5.8-3.8l-1.9,3.1l7.2,12.6l1.5-3.6L155.925,349.025z"/>
		<path fill="#FFFFFF" d="M561.625,556.825l0.5,19.5l-9.6-1.5l-4,5.5l-12,4.8l-1,3.2l-3.1,0.3l-2.5,3.2l0.4,3.8l-4.4,5.6l-0.6,3.3
			l2.9-1.1l4.3,4.7l-5.9,4.2l1.2,6.2l8.8,4.9l-2.9,1.9l-3.3,9.4l8.1-2.9l1,6.5l-2.9,7.9l10.5,2.1l-5.4,3.7l-0.2,3.3l5.4,5l12.5,3.8
			l1.4,3.1l3.5,1.4l6.5-16.5l-3.7-0.4l3-2.2l2.3-6.1l-0.8-16.6l6-13.4l-4.2-29.2l-4.5-6.4l0.6-11.9l-2-10.2l-3.2-1.2
			L561.625,556.825z"/>
		<polyline fill="none" stroke="#999999" stroke-width="0.25" stroke-linecap="round" stroke-linejoin="round" points="
			568.825,131.925 568.625,131.925 559.325,123.425 552.125,128.025 544.425,126.725 541.525,128.125 539.025,123.725 
			535.625,122.125 532.425,123.925 532.125,127.225 529.125,126.425 520.125,116.125 518.125,109.525 514.825,107.225 
			502.425,104.425 497.425,108.325 494.325,108.425 488.525,105.825 		"/>
		
			<line fill="none" stroke="#999999" stroke-width="0.25" stroke-linecap="round" stroke-linejoin="round" x1="488.525" y1="105.825" x2="488.325" y2="105.725"/>
		<polyline fill="none" stroke="#999999" stroke-width="0.25" stroke-linecap="round" stroke-linejoin="round" points="
			488.325,105.725 488.125,105.625 484.525,102.525 476.825,102.525 475.425,105.525 469.425,106.425 469.125,106.425 
			465.325,98.325 465.225,98.325 461.625,98.625 461.725,95.025 454.925,93.425 447.325,86.725 440.725,86.925 441.725,79.625 
			438.525,73.225 438.525,68.525 441.525,62.925 438.425,61.125 433.925,65.925 431.925,73.125 422.125,77.525 416.125,75.525 
			412.925,76.325 		"/>
		<polyline fill="none" stroke="#999999" stroke-width="0.25" stroke-linecap="round" stroke-linejoin="round" points="
			568.825,131.925 567.325,136.625 565.725,139.525 555.625,139.925 545.525,134.625 544.525,131.525 539.125,143.625 
			545.225,146.425 543.325,149.225 545.925,151.025 547.525,148.225 550.725,148.725 555.625,152.425 552.225,167.425 
			549.725,169.425 545.825,169.025 		"/>
		<polyline fill="none" stroke="#999999" stroke-width="0.25" stroke-linecap="round" stroke-linejoin="round" points="
			548.025,170.525 546.525,181.725 552.325,184.325 551.125,185.325 546.425,200.525 541.125,209.325 541.125,216.225 		"/>
		
			<line fill="none" stroke="#999999" stroke-width="0.25" stroke-linecap="round" stroke-linejoin="round" x1="545.825" y1="169.025" x2="548.025" y2="170.525"/>
		
			<line fill="none" stroke="#999999" stroke-width="0.25" stroke-linecap="round" stroke-linejoin="round" x1="568.825" y1="131.925" x2="568.825" y2="131.925"/>
		<polyline fill="none" stroke="#999999" stroke-width="0.25" stroke-linecap="round" stroke-linejoin="round" points="
			548.125,240.825 552.125,240.325 555.425,241.025 554.625,244.425 563.125,244.425 566.125,243.325 566.625,239.925 
			569.925,239.725 570.125,236.225 572.625,234.025 569.425,225.325 572.425,208.025 570.325,196.425 576.925,180.725 
			578.525,163.125 590.325,147.825 594.825,135.825 585.125,132.425 568.825,131.925 		"/>
		<polyline fill="none" stroke="#999999" stroke-width="0.25" stroke-linecap="round" stroke-linejoin="round" points="
			408.525,74.725 412.125,67.925 408.725,61.925 411.025,54.725 407.925,55.425 403.325,49.925 396.525,51.125 390.425,49.625 
			387.925,51.925 385.525,41.725 379.425,40.225 378.125,37.225 374.925,39.625 371.325,38.425 367.925,28.925 368.425,25.525 
			364.025,20.525 357.525,21.125 351.225,25.525 347.925,24.025 344.725,18.125 341.025,18.125 339.525,15.125 340.725,8.725 
			337.825,1.925 334.725,0.125 316.425,4.625 301.125,9.425 294.625,14.925 294.525,35.225 297.825,39.225 294.725,37.225 
			293.925,43.825 294.425,48.125 297.025,49.925 		"/>
		<polyline fill="none" stroke="#999999" stroke-width="0.25" stroke-linecap="round" stroke-linejoin="round" points="
			390.925,69.925 408.525,74.625 408.525,74.725 		"/>
		<polyline fill="none" stroke="#999999" stroke-width="0.25" stroke-linecap="round" stroke-linejoin="round" points="
			412.925,76.325 412.525,76.425 408.425,75.025 408.525,74.725 		"/>
		
			<line fill="none" stroke="#999999" stroke-width="0.25" stroke-linecap="round" stroke-linejoin="round" x1="413.825" y1="82.725" x2="412.925" y2="76.325"/>
		<polyline fill="none" stroke="#999999" stroke-width="0.25" stroke-linecap="round" stroke-linejoin="round" points="
			297.025,49.925 310.725,51.125 311.825,54.525 319.825,61.025 333.225,58.125 330.325,64.625 332.225,68.125 335.025,64.625 
			344.425,68.525 345.425,65.425 348.525,70.625 351.225,68.725 352.125,72.225 361.725,70.225 365.425,73.225 379.625,72.525 
			382.525,70.025 385.125,71.925 390.925,69.925 		"/>
		
			<line fill="none" stroke="#999999" stroke-width="0.25" stroke-linecap="round" stroke-linejoin="round" x1="347.325" y1="139.025" x2="339.625" y2="137.925"/>
		<path fill="none" stroke="#999999" stroke-width="0.25" stroke-linecap="round" stroke-linejoin="round" d="M301.225,130.925
			l6.3,1.2l7.1-2l10.3,2.5l2.5-1.9l12.2,7.2l0.3,2.3l-2,2.6l-0.1,0.1c-0.7,0.5-1.5,1-2.3,1.6c-1,0.7-2,1.4-3,2.1l-2.9-1.2l-3.7,1.5
			l1.5,2.2l-0.1,1.2"/>
		<path fill="none" stroke="#999999" stroke-width="0.25" stroke-linecap="round" stroke-linejoin="round" d="M335.625,149.925
			l5.4,2.5l5.1,5v3.6l-1.8,4.9h0.2l5.4,2.3l3.9,0.3v4.7l-1.2,0.7l-2.4-3.4h-4.9l-0.5,1.5h-5.2v0.8h-1.8h-6.4l-4.3-4.3l-5.2-2v-1.7
			h-4.5l-2.1-1.7l-0.1-0.7c-0.1-0.4-0.1-0.7,0-1.1l-0.1-0.3l0.1-0.1l3-3.7h4.4l1.6-1c0.3-0.3,0.5-0.4,0.8-0.6l2.6-1.9l2.3-1.6v-2.2
			H335.625"/>
		
			<line fill="none" stroke="#999999" stroke-width="0.25" stroke-linecap="round" stroke-linejoin="round" x1="327.325" y1="150.325" x2="327.625" y2="153.725"/>
		<polyline fill="none" stroke="#999999" stroke-width="0.25" stroke-linecap="round" stroke-linejoin="round" points="
			413.825,82.725 412.325,86.625 413.825,90.125 408.225,98.225 405.125,98.525 405.425,114.525 404.325,117.725 398.325,115.725 
			389.425,120.125 388.025,123.125 391.625,132.125 385.525,134.625 387.325,137.425 386.325,140.425 389.125,141.925 
			380.525,153.425 370.125,146.625 365.725,141.925 366.525,138.725 364.525,135.925 361.525,135.125 352.425,138.425 
			349.625,136.625 347.325,139.025 		"/>
		
			<line fill="none" stroke="#999999" stroke-width="0.25" stroke-linecap="round" stroke-linejoin="round" x1="380.025" y1="155.625" x2="380.525" y2="153.425"/>
		<polyline fill="none" stroke="#999999" stroke-width="0.25" stroke-linecap="round" stroke-linejoin="round" points="
			360.225,195.325 360.525,188.725 377.825,185.325 377.325,175.725 380.625,174.925 384.025,169.325 381.125,167.425 
			377.225,158.125 380.025,155.625 		"/>
		<polyline fill="none" stroke="#999999" stroke-width="0.25" stroke-linecap="round" stroke-linejoin="round" points="
			465.225,98.325 463.225,99.725 460.925,102.725 454.525,100.425 452.425,102.625 453.325,112.425 449.725,118.125 
			451.225,121.025 446.625,125.125 449.025,135.225 447.925,139.925 450.825,141.325 450.225,145.725 446.725,146.925 
			445.425,153.525 449.025,158.725 449.625,163.225 453.425,169.125 472.325,180.725 469.725,183.425 484.025,194.125 
			482.025,203.725 488.225,208.825 488.525,212.425 491.525,211.225 		"/>
		<polyline fill="none" stroke="#999999" stroke-width="0.25" stroke-linecap="round" stroke-linejoin="round" points="
			470.125,237.325 464.725,239.425 464.725,236.225 461.325,234.525 450.925,232.225 448.425,226.925 451.525,224.125 
			450.325,220.625 448.425,218.225 445.125,217.825 445.525,214.625 442.525,213.525 441.925,210.425 438.025,209.625 
			438.025,209.725 433.725,209.125 428.425,213.525 421.525,214.525 419.025,216.725 415.725,215.225 401.625,217.025 
			396.025,204.725 391.925,200.025 389.725,202.525 386.925,193.225 381.925,186.925 		"/>
		<polyline fill="none" stroke="#999999" stroke-width="0.25" stroke-linecap="round" stroke-linejoin="round" points="
			473.125,235.425 475.425,238.925 475.625,242.425 470.325,247.025 473.325,248.625 477.625,257.825 476.325,259.225 
			474.325,268.525 467.325,276.125 466.125,280.625 466.625,284.025 475.925,288.925 470.325,293.125 473.125,294.925 
			475.525,304.725 472.325,310.325 473.325,316.225 470.225,317.425 470.125,317.425 464.725,313.825 458.725,315.225 
			452.125,313.525 445.525,337.025 439.025,328.325 437.225,330.925 434.525,329.225 431.925,331.125 429.525,329.125 
			426.925,331.225 426.525,334.625 420.125,338.925 417.825,336.525 408.825,338.225 403.025,334.525 		"/>
		
			<line fill="none" stroke="#999999" stroke-width="0.25" stroke-linecap="round" stroke-linejoin="round" x1="381.925" y1="186.925" x2="377.825" y2="185.325"/>
		<polyline fill="none" stroke="#999999" stroke-width="0.25" stroke-linecap="round" stroke-linejoin="round" points="
			360.225,195.325 355.925,201.325 363.425,209.725 		"/>
		<polyline fill="none" stroke="#999999" stroke-width="0.25" stroke-linecap="round" stroke-linejoin="round" points="
			361.125,295.925 362.625,285.925 362.925,279.325 360.425,277.125 360.125,270.525 356.625,262.025 353.525,259.625 
			355.425,253.125 353.225,245.825 354.925,243.125 358.025,242.425 355.625,234.625 352.225,231.425 358.225,227.725 
			359.925,225.025 358.725,221.725 363.925,216.225 363.425,209.725 		"/>
		<polyline fill="none" stroke="#999999" stroke-width="0.25" stroke-linecap="round" stroke-linejoin="round" points="
			355.925,201.325 343.325,204.325 333.025,203.525 336.025,201.825 336.625,198.825 331.925,194.025 		"/>
		
			<line fill="none" stroke="#999999" stroke-width="0.25" stroke-linecap="round" stroke-linejoin="round" x1="331.925" y1="194.025" x2="331.125" y2="190.525"/>
		<polyline fill="none" stroke="#999999" stroke-width="0.25" stroke-linecap="round" stroke-linejoin="round" points="
			294.225,154.725 294.725,166.925 301.725,173.025 303.125,179.325 305.525,181.725 309.025,181.025 312.225,192.925 
			312.225,192.925 320.025,192.025 322.225,188.925 323.825,191.825 326.925,189.925 331.125,190.525 335.025,185.225 		"/>
		<polyline fill="none" stroke="#999999" stroke-width="0.25" stroke-linecap="round" stroke-linejoin="round" points="
			430.425,399.825 427.425,400.925 426.725,394.725 420.025,392.225 412.925,395.625 409.825,396.125 407.225,393.825 
			404.125,394.725 407.425,386.725 404.425,378.325 399.325,374.125 394.025,365.425 396.425,358.425 393.625,355.325 
			399.825,350.025 398.125,335.925 398.625,332.625 403.025,331.125 407.225,325.925 407.725,319.825 405.925,317.125 
			397.025,313.825 389.525,298.625 382.825,305.425 378.025,301.225 374.825,303.225 367.625,303.025 		"/>
		
			<line fill="none" stroke="#999999" stroke-width="0.25" stroke-linecap="round" stroke-linejoin="round" x1="361.125" y1="295.925" x2="361.125" y2="295.925"/>
		<polyline fill="none" stroke="#999999" stroke-width="0.25" stroke-linecap="round" stroke-linejoin="round" points="
			361.125,295.925 356.625,295.925 351.225,300.025 341.725,303.325 339.225,305.425 341.125,311.425 339.225,314.125 
			329.425,315.225 		"/>
		
			<line fill="none" stroke="#999999" stroke-width="0.25" stroke-linecap="round" stroke-linejoin="round" x1="361.125" y1="295.925" x2="361.125" y2="295.925"/>
		
			<line fill="none" stroke="#999999" stroke-width="0.25" stroke-linecap="round" stroke-linejoin="round" x1="367.625" y1="303.025" x2="361.125" y2="295.925"/>
		<polyline fill="none" stroke="#999999" stroke-width="0.25" stroke-linecap="round" stroke-linejoin="round" points="
			329.425,315.225 325.525,321.825 325.525,321.925 		"/>
		
			<line fill="none" stroke="#999999" stroke-width="0.25" stroke-linecap="round" stroke-linejoin="round" x1="325.525" y1="321.925" x2="325.525" y2="321.925"/>
		
			<line fill="none" stroke="#999999" stroke-width="0.25" stroke-linecap="round" stroke-linejoin="round" x1="326.725" y1="326.325" x2="325.525" y2="321.925"/>
		<polyline fill="none" stroke="#999999" stroke-width="0.25" stroke-linecap="round" stroke-linejoin="round" points="
			325.525,321.925 320.025,321.725 316.925,322.625 302.125,319.625 299.925,322.425 287.125,323.625 283.925,326.825 
			282.025,324.125 275.525,325.325 		"/>
		<path fill="none" stroke="#999999" stroke-width="0.25" stroke-linecap="round" stroke-linejoin="round" d="M293.625,417.825
			l7.5,6.8l5.9-3l7.6,0.1l3.7-2.1l-1.7-3.7l3.5-1.3l0.3-3.9l2.6-2.1l-2-2.5l8.5-10.7l0.7-3.8l7,2.2l-2.2-15.7l2-2.8l-1.4-6.2l-5-6.1
			l10.5-9.7l-2.6-7.6l0.6-4.6l-4.1-9.4c-2.7-1.8-5.5-3.6-8.3-5.4"/>
		
			<line fill="none" stroke="#999999" stroke-width="0.25" stroke-linecap="round" stroke-linejoin="round" x1="403.025" y1="334.525" x2="403.025" y2="331.125"/>
		<polyline fill="none" stroke="#999999" stroke-width="0.25" stroke-linecap="round" stroke-linejoin="round" points="
			410.825,430.025 417.525,427.925 421.325,421.225 425.125,420.825 424.325,417.625 427.325,415.125 429.025,409.225 
			431.925,410.625 431.925,407.125 432.925,402.425 436.825,401.625 440.425,396.125 446.025,393.125 446.025,388.125 
			445.825,386.925 445.825,386.925 450.825,382.425 448.725,379.625 451.525,376.825 459.325,375.125 462.125,369.625 
			461.725,361.625 468.525,363.825 471.925,358.125 475.125,357.325 487.525,374.425 494.025,366.825 496.525,351.625 
			496.525,351.525 495.725,341.125 498.925,341.125 		"/>
		<polyline fill="none" stroke="#999999" stroke-width="0.25" stroke-linecap="round" stroke-linejoin="round" points="
			538.025,218.925 536.925,219.625 527.525,212.225 521.825,214.725 516.325,210.625 509.925,212.425 502.025,207.725 		"/>
		<polyline fill="none" stroke="#999999" stroke-width="0.25" stroke-linecap="round" stroke-linejoin="round" points="
			546.525,224.525 538.025,218.925 541.125,216.225 		"/>
		<polyline fill="none" stroke="#999999" stroke-width="0.25" stroke-linecap="round" stroke-linejoin="round" points="
			492.925,214.125 493.125,215.725 490.625,219.325 487.425,218.925 485.025,221.625 484.725,231.025 481.325,232.125 
			478.825,230.125 471.425,234.525 		"/>
		<polyline fill="none" stroke="#999999" stroke-width="0.25" stroke-linecap="round" stroke-linejoin="round" points="
			491.525,211.225 492.925,214.025 492.925,214.125 		"/>
		
			<line fill="none" stroke="#999999" stroke-width="0.25" stroke-linecap="round" stroke-linejoin="round" x1="502.025" y1="207.725" x2="492.925" y2="214.125"/>
		<polyline fill="none" stroke="#999999" stroke-width="0.25" stroke-linecap="round" stroke-linejoin="round" points="
			552.625,240.225 550.125,234.525 547.025,234.725 546.525,224.525 		"/>
		
			<line fill="none" stroke="#999999" stroke-width="0.25" stroke-linecap="round" stroke-linejoin="round" x1="548.125" y1="240.825" x2="548.225" y2="240.725"/>
		<polyline fill="none" stroke="#999999" stroke-width="0.25" stroke-linecap="round" stroke-linejoin="round" points="
			509.025,307.725 509.925,304.525 523.125,292.425 522.125,281.525 531.825,274.825 544.925,258.625 544.725,255.425 
			547.325,253.025 542.525,249.025 543.525,245.625 543.825,245.425 547.825,240.925 548.125,240.825 		"/>
		
			<line fill="none" stroke="#999999" stroke-width="0.25" stroke-linecap="round" stroke-linejoin="round" x1="543.825" y1="245.425" x2="543.825" y2="245.525"/>
		
			<line fill="none" stroke="#999999" stroke-width="0.25" stroke-linecap="round" stroke-linejoin="round" x1="543.825" y1="245.525" x2="548.125" y2="240.825"/>
		<polyline fill="none" stroke="#999999" stroke-width="0.25" stroke-linecap="round" stroke-linejoin="round" points="
			543.825,360.025 553.125,351.025 554.225,347.525 550.425,342.425 541.625,334.125 544.325,327.125 540.125,321.125 
			540.625,317.925 536.925,317.125 527.425,317.825 521.825,322.525 517.925,320.825 514.725,327.425 517.425,330.825 
			509.625,336.825 502.025,337.925 		"/>
		<polyline fill="none" stroke="#999999" stroke-width="0.25" stroke-linecap="round" stroke-linejoin="round" points="
			506.125,318.225 500.825,325.525 494.725,329.125 490.425,329.425 489.925,326.225 486.125,324.425 481.625,329.425 
			478.325,329.525 478.225,326.125 474.925,326.125 		"/>
		<polyline fill="none" stroke="#999999" stroke-width="0.25" stroke-linecap="round" stroke-linejoin="round" points="
			502.025,337.925 501.725,337.925 501.725,337.825 502.325,332.225 508.825,328.225 510.025,320.425 506.125,318.225 
			505.925,318.025 508.925,307.925 		"/>
		
			<line fill="none" stroke="#999999" stroke-width="0.25" stroke-linecap="round" stroke-linejoin="round" x1="508.925" y1="307.925" x2="509.025" y2="307.725"/>
		
			<line fill="none" stroke="#999999" stroke-width="0.25" stroke-linecap="round" stroke-linejoin="round" x1="498.925" y1="341.125" x2="502.025" y2="337.925"/>
		<polyline fill="none" stroke="#999999" stroke-width="0.25" stroke-linecap="round" stroke-linejoin="round" points="
			543.825,360.025 543.625,360.225 543.625,360.425 		"/>
		<polyline fill="none" stroke="#999999" stroke-width="0.25" stroke-linecap="round" stroke-linejoin="round" points="
			537.925,407.025 537.925,406.925 559.525,397.625 561.825,393.625 560.525,390.625 563.625,384.825 555.425,379.125 
			552.925,372.925 553.725,369.425 547.425,366.825 544.225,363.825 543.625,360.425 		"/>
		
			<line fill="none" stroke="#999999" stroke-width="0.25" stroke-linecap="round" stroke-linejoin="round" x1="543.625" y1="360.425" x2="543.825" y2="360.025"/>
		
			<line fill="none" stroke="#999999" stroke-width="0.25" stroke-linecap="round" stroke-linejoin="round" x1="548.225" y1="240.725" x2="552.625" y2="240.225"/>
		
			<line fill="none" stroke="#999999" stroke-width="0.25" stroke-linecap="round" stroke-linejoin="round" x1="474.925" y1="326.125" x2="470.225" y2="317.425"/>
		
			<line fill="none" stroke="#999999" stroke-width="0.25" stroke-linecap="round" stroke-linejoin="round" x1="335.025" y1="185.225" x2="337.825" y2="172.825"/>
		
			<line fill="none" stroke="#999999" stroke-width="0.25" stroke-linecap="round" stroke-linejoin="round" x1="470.125" y1="237.325" x2="473.125" y2="235.425"/>
		
			<line fill="none" stroke="#999999" stroke-width="0.25" stroke-linecap="round" stroke-linejoin="round" x1="471.425" y1="234.525" x2="470.125" y2="237.325"/>
		<polyline fill="none" stroke="#999999" stroke-width="0.25" stroke-linecap="round" stroke-linejoin="round" points="
			297.025,49.925 292.825,51.525 292.425,54.925 295.825,61.125 292.725,59.425 285.425,69.425 		"/>
		<polyline fill="none" stroke="#999999" stroke-width="0.25" stroke-linecap="round" stroke-linejoin="round" points="
			285.425,69.425 285.425,69.425 299.525,81.425 		"/>
		<polyline fill="none" stroke="#999999" stroke-width="0.25" stroke-linecap="round" stroke-linejoin="round" points="
			285.425,69.425 285.225,69.725 273.025,78.225 248.225,84.425 232.225,93.025 225.725,107.225 227.625,109.725 237.525,111.925 
			237.825,112.025 236.025,112.625 		"/>
		<polyline fill="none" stroke="#999999" stroke-width="0.25" stroke-linecap="round" stroke-linejoin="round" points="
			236.025,112.625 235.825,112.725 228.125,114.525 222.725,119.225 211.825,122.225 202.425,118.225 188.325,116.725 
			177.625,113.025 171.825,115.525 		"/>
		<polyline fill="none" stroke="#999999" stroke-width="0.25" stroke-linecap="round" stroke-linejoin="round" points="
			171.825,115.525 171.625,115.725 164.425,103.725 167.125,95.025 166.025,91.925 158.725,91.125 155.925,93.125 148.625,93.625 
			135.825,88.425 135.625,91.525 139.325,93.625 139.825,99.125 137.725,101.425 140.625,112.925 150.125,123.125 148.625,134.425 
			150.825,137.525 150.225,144.325 147.725,150.725 152.325,161.325 155.325,162.725 158.125,160.925 157.025,164.225 
			149.025,165.025 		"/>
		
			<line fill="none" stroke="#999999" stroke-width="0.25" stroke-linecap="round" stroke-linejoin="round" x1="171.825" y1="115.525" x2="171.825" y2="115.625"/>
		<polyline fill="none" stroke="#999999" stroke-width="0.25" stroke-linecap="round" stroke-linejoin="round" points="
			120.525,239.025 120.925,232.325 126.825,228.525 141.525,228.025 143.325,224.825 153.425,220.425 161.125,224.425 
			161.625,222.025 165.625,212.325 171.825,209.825 169.725,190.325 171.425,187.725 171.525,174.125 165.325,171.525 
			157.425,176.825 154.425,175.825 		"/>
		
			<line fill="none" stroke="#999999" stroke-width="0.25" stroke-linecap="round" stroke-linejoin="round" x1="154.425" y1="175.825" x2="149.025" y2="165.025"/>
		<polyline fill="none" stroke="#999999" stroke-width="0.25" stroke-linecap="round" stroke-linejoin="round" points="
			149.025,165.025 148.825,165.025 136.225,165.125 136.525,158.825 132.825,159.625 128.325,163.925 131.025,169.725 
			128.625,168.025 128.525,168.025 		"/>
		<polyline fill="none" stroke="#999999" stroke-width="0.25" stroke-linecap="round" stroke-linejoin="round" points="
			256.925,198.525 253.425,197.725 249.825,193.825 246.625,194.925 238.525,189.325 236.725,179.925 233.625,178.225 
			221.325,184.725 217.925,184.625 217.925,181.325 214.325,179.625 212.125,172.825 209.025,172.625 208.225,175.625 
			198.025,175.625 190.425,179.325 187.625,177.425 184.925,179.125 181.225,175.025 		"/>
		
			<line fill="none" stroke="#999999" stroke-width="0.25" stroke-linecap="round" stroke-linejoin="round" x1="181.225" y1="175.025" x2="171.525" y2="174.125"/>
		<polyline fill="none" stroke="#999999" stroke-width="0.25" stroke-linecap="round" stroke-linejoin="round" points="
			299.425,127.325 303.925,124.425 299.925,115.025 301.425,106.025 299.925,96.125 303.425,90.925 299.525,81.425 		"/>
		<polyline fill="none" stroke="#999999" stroke-width="0.25" stroke-linecap="round" stroke-linejoin="round" points="
			301.225,130.925 299.425,127.325 294.925,137.925 		"/>
		
			<line fill="none" stroke="#999999" stroke-width="0.25" stroke-linecap="round" stroke-linejoin="round" x1="236.025" y1="112.625" x2="236.025" y2="112.725"/>
		
			<line fill="none" stroke="#999999" stroke-width="0.25" stroke-linecap="round" stroke-linejoin="round" x1="236.025" y1="112.525" x2="236.025" y2="112.625"/>
		
			<line fill="none" stroke="#999999" stroke-width="0.25" stroke-linecap="round" stroke-linejoin="round" x1="237.525" y1="111.925" x2="236.025" y2="112.525"/>
		<polyline fill="none" stroke="#999999" stroke-width="0.25" stroke-linecap="round" stroke-linejoin="round" points="
			236.025,112.725 236.425,122.525 239.525,122.525 237.025,124.925 240.125,135.425 238.525,138.725 241.125,143.425 
			240.425,145.925 240.525,149.425 247.625,150.025 256.425,160.725 254.525,163.225 		"/>
		<polyline fill="none" stroke="#999999" stroke-width="0.25" stroke-linecap="round" stroke-linejoin="round" points="
			256.925,198.525 255.825,190.125 264.225,184.325 263.625,179.125 263.825,174.125 258.425,169.225 258.425,165.525 
			261.025,162.725 267.725,161.525 273.725,157.925 276.925,159.725 283.625,158.225 283.325,155.125 		"/>
		
			<line fill="none" stroke="#999999" stroke-width="0.25" stroke-linecap="round" stroke-linejoin="round" x1="254.525" y1="163.225" x2="258.425" y2="165.525"/>
		<polyline fill="none" stroke="#999999" stroke-width="0.25" stroke-linecap="round" stroke-linejoin="round" points="
			294.225,154.725 290.125,147.325 283.325,155.125 		"/>
		<polyline fill="none" stroke="#999999" stroke-width="0.25" stroke-linecap="round" stroke-linejoin="round" points="
			290.125,147.325 288.125,140.725 290.725,137.925 294.925,137.925 		"/>
		<polyline fill="none" stroke="#999999" stroke-width="0.25" stroke-linecap="round" stroke-linejoin="round" points="
			123.425,165.025 123.425,165.225 118.825,165.625 117.725,162.125 114.325,163.725 113.125,160.825 109.125,161.125 
			97.025,171.125 96.025,167.025 91.525,164.125 91.425,160.625 86.325,151.825 83.025,151.125 83.725,147.925 80.325,148.325 
			78.525,151.725 79.925,144.225 74.625,147.825 74.025,143.825 64.025,147.925 62.425,145.225 57.425,149.325 57.125,156.225 
			53.525,156.825 53.325,156.825 47.925,153.425 44.725,154.125 44.025,157.925 41.525,154.925 39.725,158.525 39.625,151.225 
			23.425,156.025 21.725,153.125 10.325,159.325 13.225,160.825 3.825,159.925 1.725,162.625 0.125,172.625 2.125,175.225 
			5.125,174.025 8.125,175.325 21.925,171.225 17.725,173.225 17.125,177.025 23.825,175.325 23.325,178.625 26.625,180.025 
			23.125,180.725 30.125,183.725 23.525,182.125 22.025,179.325 17.725,180.525 11.225,179.225 9.325,176.525 7.625,180.625 
			10.425,186.525 12.325,183.425 15.425,183.725 21.525,187.225 22.525,190.825 20.725,193.625 17.925,192.125 3.825,193.525 
			2.125,196.325 12.825,200.325 16.925,207.325 15.825,213.525 24.025,214.225 28.125,209.525 28.125,209.125 		"/>
		
			<line fill="none" stroke="#999999" stroke-width="0.25" stroke-linecap="round" stroke-linejoin="round" x1="123.625" y1="163.125" x2="123.425" y2="165.025"/>
		<polyline fill="none" stroke="#999999" stroke-width="0.25" stroke-linecap="round" stroke-linejoin="round" points="
			123.625,163.125 123.525,163.125 123.425,165.025 		"/>
		
			<line fill="none" stroke="#999999" stroke-width="0.25" stroke-linecap="round" stroke-linejoin="round" x1="123.625" y1="162.925" x2="123.625" y2="163.125"/>
		<polyline fill="none" stroke="#999999" stroke-width="0.25" stroke-linecap="round" stroke-linejoin="round" points="
			128.625,168.025 126.825,163.025 123.625,162.925 		"/>
		
			<line fill="none" stroke="#999999" stroke-width="0.25" stroke-linecap="round" stroke-linejoin="round" x1="128.525" y1="168.025" x2="128.625" y2="168.125"/>
		<polyline fill="none" stroke="#999999" stroke-width="0.25" stroke-linecap="round" stroke-linejoin="round" points="
			123.625,163.125 126.625,163.125 128.525,168.025 		"/>
		<polyline fill="none" stroke="#999999" stroke-width="0.25" stroke-linecap="round" stroke-linejoin="round" points="
			28.125,209.125 31.525,211.325 36.625,209.425 41.925,216.125 45.125,215.425 45.125,212.225 45.525,215.325 45.525,215.425 
			48.425,214.325 47.725,217.525 51.025,218.225 55.225,216.525 55.425,213.125 56.225,221.725 59.125,223.525 62.125,222.025 
			62.125,221.925 61.625,215.425 62.225,218.825 65.525,219.425 63.125,221.825 64.825,224.825 68.925,226.525 71.925,225.225 
			69.225,226.625 69.525,229.725 71.925,232.925 71.025,237.025 73.425,239.625 72.025,236.425 75.125,233.725 78.725,232.925 
			81.525,234.925 80.125,228.325 83.525,233.825 85.225,230.925 89.425,231.625 91.725,234.325 89.525,237.125 82.525,236.225 
			87.825,240.425 101.725,239.325 104.825,241.025 101.425,241.225 103.225,244.125 		"/>
		<polyline fill="none" stroke="#999999" stroke-width="0.25" stroke-linecap="round" stroke-linejoin="round" points="
			103.225,244.125 98.225,249.025 100.925,255.925 107.725,257.025 110.025,259.325 115.625,255.225 123.625,254.525 
			116.025,257.425 115.325,264.825 111.925,266.325 118.625,268.725 124.025,274.325 115.225,283.625 115.725,288.625 
			127.425,302.325 129.725,310.225 138.825,317.825 144.225,319.025 146.025,323.025 152.725,324.325 158.025,328.625 
			158.725,325.525 161.925,325.925 156.825,336.825 160.125,337.825 164.725,346.825 161.625,347.325 163.425,353.325 
			160.125,359.825 154.825,363.525 156.225,368.225 165.025,373.725 176.725,386.325 179.125,394.725 179.725,397.825 
			177.325,401.625 174.525,392.825 162.525,381.025 161.425,377.825 158.125,384.325 151.225,440.625 155.625,431.925 
			160.625,437.725 160.925,440.925 153.725,439.925 150.125,447.625 150.225,452.925 137.825,509.125 133.625,517.125 
			128.425,524.225 121.325,529.425 127.825,532.425 128.425,535.925 130.925,533.625 138.325,535.125 139.925,538.325 
			137.825,544.925 134.825,547.525 136.325,550.725 140.725,551.725 141.225,547.725 144.525,546.725 144.825,550.425 
			151.325,554.025 162.225,558.225 169.225,557.825 172.225,563.125 181.025,570.325 183.625,568.425 186.225,570.025 
			192.925,566.625 193.025,566.725 		"/>
		<polyline fill="none" stroke="#999999" stroke-width="0.25" stroke-linecap="round" stroke-linejoin="round" points="
			69.725,252.725 74.025,251.325 68.425,247.525 65.225,247.925 66.025,251.625 69.725,252.725 		"/>
		<polyline fill="none" stroke="#999999" stroke-width="0.25" stroke-linecap="round" stroke-linejoin="round" points="
			108.625,276.225 115.425,282.825 115.225,279.225 111.825,277.125 110.725,273.725 108.625,276.225 		"/>
		
			<line fill="none" stroke="#999999" stroke-width="0.25" stroke-linecap="round" stroke-linejoin="round" x1="120.525" y1="239.025" x2="103.225" y2="244.125"/>
		<polyline fill="none" stroke="#999999" stroke-width="0.25" stroke-linecap="round" stroke-linejoin="round" points="
			28.425,205.625 30.425,205.325 28.825,202.125 28.425,205.625 		"/>
		<polyline fill="none" stroke="#999999" stroke-width="0.25" stroke-linecap="round" stroke-linejoin="round" points="
			28.425,205.625 27.225,205.825 28.125,209.025 28.125,209.125 		"/>
		
			<line fill="none" stroke="#999999" stroke-width="0.25" stroke-linecap="round" stroke-linejoin="round" x1="28.125" y1="209.125" x2="28.425" y2="205.625"/>
		
			<line fill="none" stroke="#999999" stroke-width="0.25" stroke-linecap="round" stroke-linejoin="round" x1="143.025" y1="329.125" x2="143.125" y2="329.425"/>
		<polyline fill="none" stroke="#999999" stroke-width="0.25" stroke-linecap="round" stroke-linejoin="round" points="
			143.125,329.425 142.825,329.125 144.125,332.225 144.225,332.125 		"/>
		<polyline fill="none" stroke="#999999" stroke-width="0.25" stroke-linecap="round" stroke-linejoin="round" points="
			145.725,331.725 145.625,331.625 145.725,331.625 147.925,330.925 154.025,334.825 150.725,336.225 145.725,331.725 		"/>
		<polyline fill="none" stroke="#999999" stroke-width="0.25" stroke-linecap="round" stroke-linejoin="round" points="
			143.025,329.125 145.725,331.625 145.825,331.625 		"/>
		
			<line fill="none" stroke="#999999" stroke-width="0.25" stroke-linecap="round" stroke-linejoin="round" x1="145.825" y1="331.625" x2="145.725" y2="331.725"/>
		<polyline fill="none" stroke="#999999" stroke-width="0.25" stroke-linecap="round" stroke-linejoin="round" points="
			144.225,332.125 144.825,331.925 145.625,331.725 		"/>
		
			<line fill="none" stroke="#999999" stroke-width="0.25" stroke-linecap="round" stroke-linejoin="round" x1="145.625" y1="331.725" x2="145.725" y2="331.725"/>
		
			<line fill="none" stroke="#999999" stroke-width="0.25" stroke-linecap="round" stroke-linejoin="round" x1="144.225" y1="332.125" x2="143.125" y2="329.425"/>
		
			<line fill="none" stroke="#999999" stroke-width="0.25" stroke-linecap="round" stroke-linejoin="round" x1="145.625" y1="331.725" x2="143.125" y2="329.425"/>
		<polyline fill="none" stroke="#999999" stroke-width="0.25" stroke-linecap="round" stroke-linejoin="round" points="
			220.425,268.825 226.925,251.625 228.725,241.225 229.625,238.525 236.425,241.425 235.925,237.725 239.025,238.025 
			247.625,233.025 247.625,232.925 248.325,229.125 251.925,227.925 258.925,216.025 258.525,209.725 256.625,207.225 
			258.925,204.925 258.925,204.825 259.325,202.825 		"/>
		<polyline fill="none" stroke="#999999" stroke-width="0.25" stroke-linecap="round" stroke-linejoin="round" points="
			259.325,202.825 256.925,198.525 256.925,198.525 		"/>
		<polyline fill="none" stroke="#999999" stroke-width="0.25" stroke-linecap="round" stroke-linejoin="round" points="
			212.925,275.625 210.425,273.025 199.525,273.325 193.225,274.125 189.025,279.425 175.325,280.425 177.825,286.725 
			182.525,291.425 187.925,311.525 187.625,319.925 190.425,322.025 180.225,327.125 177.525,325.125 170.325,325.425 
			171.825,322.125 161.925,325.925 		"/>
		<polyline fill="none" stroke="#999999" stroke-width="0.25" stroke-linecap="round" stroke-linejoin="round" points="
			212.925,275.625 220.425,268.925 220.425,268.925 		"/>
		
			<line fill="none" stroke="#999999" stroke-width="0.25" stroke-linecap="round" stroke-linejoin="round" x1="220.425" y1="268.925" x2="220.425" y2="268.825"/>
		<polyline fill="none" stroke="#999999" stroke-width="0.25" stroke-linecap="round" stroke-linejoin="round" points="
			249.325,365.625 252.325,364.925 256.825,355.925 259.725,354.725 260.425,351.125 255.225,347.125 255.425,337.525 
			258.725,331.925 265.125,328.825 266.425,325.525 270.225,326.425 271.625,323.725 272.625,324.025 274.325,320.925 
			271.425,319.525 268.625,313.425 265.325,313.425 260.125,308.525 260.925,302.025 250.625,287.325 250.425,283.825 
			244.425,280.525 246.025,283.725 234.825,284.225 231.625,282.625 230.125,275.825 226.925,276.125 226.525,272.525 		"/>
		
			<line fill="none" stroke="#999999" stroke-width="0.25" stroke-linecap="round" stroke-linejoin="round" x1="226.525" y1="272.525" x2="220.425" y2="268.925"/>
		<polyline fill="none" stroke="#999999" stroke-width="0.25" stroke-linecap="round" stroke-linejoin="round" points="
			150.125,345.225 148.225,348.325 155.425,360.925 156.925,357.325 155.925,349.025 150.125,345.225 		"/>
		
			<line fill="none" stroke="#999999" stroke-width="0.25" stroke-linecap="round" stroke-linejoin="round" x1="275.525" y1="325.325" x2="272.625" y2="324.025"/>
		<polyline fill="none" stroke="#999999" stroke-width="0.25" stroke-linecap="round" stroke-linejoin="round" points="
			245.525,369.925 245.425,369.925 249.325,365.625 		"/>
		<polyline fill="none" stroke="#999999" stroke-width="0.25" stroke-linecap="round" stroke-linejoin="round" points="
			239.125,376.825 245.525,369.925 245.525,369.925 		"/>
		<polyline fill="none" stroke="#999999" stroke-width="0.25" stroke-linecap="round" stroke-linejoin="round" points="
			194.425,556.925 196.225,553.825 200.025,552.925 199.525,549.625 208.625,539.225 207.725,535.725 210.725,534.225 
			210.125,526.025 206.925,526.025 208.525,522.925 205.825,516.425 205.725,516.325 198.325,516.025 196.625,513.025 
			201.325,500.525 200.825,493.425 211.225,490.325 212.025,493.725 214.825,492.225 215.225,488.925 215.225,488.825 
			219.425,489.625 220.925,486.825 230.325,487.625 235.925,484.425 245.525,485.525 248.525,484.025 252.625,478.725 
			255.725,479.025 254.225,475.925 259.225,469.725 256.425,468.225 256.425,464.925 264.925,462.725 261.925,452.425 
			265.825,448.925 270.925,441.725 277.825,437.825 277.125,433.825 282.225,430.225 283.725,424.225 284.425,418.625 
			280.625,410.825 276.925,410.025 276.725,406.625 274.125,404.925 276.425,402.925 274.425,399.625 278.425,394.425 
			275.325,389.125 268.825,386.725 271.125,383.625 263.125,377.325 252.425,378.625 252.525,373.325 		"/>
		
			<line fill="none" stroke="#999999" stroke-width="0.25" stroke-linecap="round" stroke-linejoin="round" x1="252.525" y1="373.325" x2="245.525" y2="369.925"/>
		
			<line fill="none" stroke="#999999" stroke-width="0.25" stroke-linecap="round" stroke-linejoin="round" x1="293.625" y1="417.825" x2="284.425" y2="418.625"/>
		<polyline fill="none" stroke="#999999" stroke-width="0.25" stroke-linecap="round" stroke-linejoin="round" points="
			214.125,405.225 216.325,403.125 222.525,402.225 227.025,395.825 227.925,389.325 236.725,382.725 239.125,376.825 		"/>
		<polyline fill="none" stroke="#999999" stroke-width="0.25" stroke-linecap="round" stroke-linejoin="round" points="
			179.125,394.725 185.725,393.825 186.425,397.025 193.625,398.925 194.225,405.425 201.125,410.225 211.725,411.325 
			211.725,411.325 214.025,405.825 		"/>
		
			<line fill="none" stroke="#999999" stroke-width="0.25" stroke-linecap="round" stroke-linejoin="round" x1="214.025" y1="405.225" x2="214.025" y2="405.225"/>
		
			<line fill="none" stroke="#999999" stroke-width="0.25" stroke-linecap="round" stroke-linejoin="round" x1="214.025" y1="405.825" x2="214.025" y2="405.225"/>
		
			<line fill="none" stroke="#999999" stroke-width="0.25" stroke-linecap="round" stroke-linejoin="round" x1="214.025" y1="405.225" x2="214.125" y2="405.225"/>
		<polyline fill="none" stroke="#999999" stroke-width="0.25" stroke-linecap="round" stroke-linejoin="round" points="
			193.025,566.725 193.025,566.625 194.425,556.925 		"/>
		<polyline fill="none" stroke="#999999" stroke-width="0.25" stroke-linecap="round" stroke-linejoin="round" points="
			193.025,566.725 205.625,577.925 219.325,576.025 222.125,578.325 240.325,578.625 242.825,576.125 242.425,568.725 
			245.225,567.325 263.925,572.825 269.325,577.725 276.425,577.225 282.925,585.725 284.125,582.425 287.825,582.225 
			299.725,587.925 299.625,588.025 297.625,593.325 307.425,596.325 310.025,602.725 313.725,602.925 318.625,598.425 
			322.225,598.225 332.825,600.625 337.925,604.625 345.025,604.125 345.025,600.825 354.125,596.025 361.125,594.825 
			370.825,597.425 364.325,589.325 363.925,569.625 364.425,558.525 370.725,546.525 373.725,543.425 379.825,538.925 
			387.525,538.925 394.925,530.725 407.225,521.825 416.625,519.225 416.725,519.325 		"/>
		<path fill="none" stroke="#999999" stroke-width="0.25" stroke-linecap="round" stroke-linejoin="round" d="M299.625,588.025l10-3
			l1.4-2.9l8.3-0.2l-5.4-6.3l-3.7,1.3l-3.8-1.6l-1-6.5l3.7-0.7l1.4-3.3l-2.8-2.8l2.5-2.6l-0.2-3.4l-2.5-6l-9.7-4.3l-2.6-6.2
			l9.5-11.2l1.5,3l6-2l0.4-0.9l2,2.6l7.1,1l1.3-3.7l3.2-0.5l13.4,1.5l3.8-2.3l1-3.3l-0.8-10.9l6.8,2.4c2.6-1.6,5.1-3.2,7.7-4.8
			l6.3,0.1l0.2-9.8l7,1.4l3.4-6l4.2-1.1l-0.4-1.7l4.9-5.9l-9.4-4.6l3-1.3l2.3-4.3l-10.5-5l-1.8-2.8l0.7-9.7l-3.3-9.9l-4.8-5.1"/>
		<polyline fill="none" stroke="#999999" stroke-width="0.25" stroke-linecap="round" stroke-linejoin="round" points="
			559.425,518.325 562.025,513.625 568.525,510.625 569.725,505.925 585.925,497.125 586.425,488.925 593.425,479.325 
			595.725,474.425 591.225,468.425 577.825,473.225 567.625,467.725 560.525,466.325 553.625,458.025 553.425,457.825 
			555.525,452.325 551.125,446.225 553.625,444.225 555.125,437.525 555.425,437.125 557.425,434.825 561.425,434.925 
			557.125,424.425 550.325,424.125 544.525,420.325 543.625,412.925 540.525,412.825 537.925,407.025 		"/>
		<polyline fill="none" stroke="#999999" stroke-width="0.25" stroke-linecap="round" stroke-linejoin="round" points="
			537.925,407.025 531.025,408.325 528.825,410.625 520.125,406.625 518.325,410.925 520.325,415.625 525.225,419.125 
			524.825,425.625 521.325,424.425 507.225,428.725 506.125,431.925 500.025,433.225 498.925,436.725 498.525,440.525 
			492.125,440.925 489.325,448.525 492.625,450.925 489.825,453.825 485.225,452.225 481.525,457.925 483.225,460.925 
			494.425,467.325 494.225,472.525 493.125,472.825 490.525,472.925 485.725,478.225 479.925,475.725 479.725,472.525 
			469.225,471.525 468.725,465.025 465.825,467.525 463.125,465.925 453.425,470.325 449.425,465.525 442.925,464.825 		"/>
		
			<line fill="none" stroke="#999999" stroke-width="0.25" stroke-linecap="round" stroke-linejoin="round" x1="537.925" y1="407.025" x2="537.925" y2="407.025"/>
		<polyline fill="none" stroke="#999999" stroke-width="0.25" stroke-linecap="round" stroke-linejoin="round" points="
			553.625,458.025 546.725,465.725 544.525,471.825 549.325,481.325 557.125,490.025 551.325,489.225 545.425,493.625 
			546.925,496.525 543.425,498.125 532.525,498.625 531.125,502.525 524.525,498.525 513.125,508.025 508.725,502.625 
			505.625,504.625 		"/>
		
			<line fill="none" stroke="#999999" stroke-width="0.25" stroke-linecap="round" stroke-linejoin="round" x1="499.525" y1="504.825" x2="499.525" y2="504.725"/>
		<polyline fill="none" stroke="#999999" stroke-width="0.25" stroke-linecap="round" stroke-linejoin="round" points="
			505.625,504.625 499.725,504.325 499.525,504.825 		"/>
		
			<line fill="none" stroke="#999999" stroke-width="0.25" stroke-linecap="round" stroke-linejoin="round" x1="501.725" y1="509.125" x2="499.525" y2="504.825"/>
		<polyline fill="none" stroke="#999999" stroke-width="0.25" stroke-linecap="round" stroke-linejoin="round" points="
			496.925,542.725 497.325,538.925 500.225,536.725 497.625,529.725 498.925,526.725 502.025,526.225 495.825,516.025 
			498.025,510.025 501.725,509.125 		"/>
		<polyline fill="none" stroke="#999999" stroke-width="0.25" stroke-linecap="round" stroke-linejoin="round" points="
			416.725,519.325 419.925,524.725 423.325,525.525 423.525,525.525 439.625,526.025 441.825,528.825 441.225,531.925 
			445.425,532.825 456.325,531.725 453.825,529.025 455.225,526.225 458.325,526.525 463.425,532.625 478.325,530.925 
			482.725,540.825 493.625,543.425 496.725,542.525 496.925,542.725 503.825,546.725 503.425,549.825 513.425,546.925 
			520.125,548.725 521.425,551.925 523.625,545.725 532.025,547.125 532.125,543.925 538.425,542.525 541.425,539.725 
			545.625,540.125 548.125,534.025 544.225,532.225 551.125,523.025 557.125,522.225 559.325,518.525 		"/>
		
			<line fill="none" stroke="#999999" stroke-width="0.25" stroke-linecap="round" stroke-linejoin="round" x1="559.325" y1="518.525" x2="559.425" y2="518.325"/>
		<polyline fill="none" stroke="#999999" stroke-width="0.25" stroke-linecap="round" stroke-linejoin="round" points="
			562.125,576.325 552.525,574.825 548.525,580.325 536.525,585.125 535.525,588.325 532.425,588.625 529.925,591.825 
			530.325,595.625 525.925,601.225 525.325,604.525 528.225,603.425 532.525,608.125 526.625,612.325 527.825,618.525 
			536.625,623.425 533.725,625.325 530.425,634.725 538.525,631.825 539.525,638.325 536.625,646.225 547.125,648.325 
			541.725,652.025 541.525,655.325 546.925,660.325 559.425,664.125 560.825,667.225 564.325,668.625 570.825,652.125 
			567.125,651.725 570.125,649.525 572.425,643.425 571.625,626.825 577.625,613.425 573.425,584.225 568.925,577.825 
			569.525,565.925 567.525,555.725 564.325,554.525 561.625,556.825 562.125,576.325 		"/>
		
			<line fill="none" stroke="#999999" stroke-width="0.25" stroke-linecap="round" stroke-linejoin="round" x1="430.425" y1="399.825" x2="432.925" y2="402.425"/>
		<polyline fill="none" stroke="#999999" stroke-width="0.25" stroke-linecap="round" stroke-linejoin="round" points="
			403.325,437.225 393.225,428.625 390.025,428.325 389.825,431.525 382.625,430.125 381.025,423.725 378.425,421.825 
			369.725,429.325 367.625,426.825 		"/>
		<polyline fill="none" stroke="#999999" stroke-width="0.25" stroke-linecap="round" stroke-linejoin="round" points="
			405.625,447.425 403.325,437.225 410.825,430.025 		"/>
		<polyline fill="none" stroke="#999999" stroke-width="0.25" stroke-linecap="round" stroke-linejoin="round" points="
			443.025,468.925 436.225,465.025 433.125,465.025 430.325,467.625 430.125,464.125 422.225,469.025 413.525,463.425 
			405.625,447.425 		"/>
		<polyline fill="none" stroke="#999999" stroke-width="0.25" stroke-linecap="round" stroke-linejoin="round" points="
			445.925,474.025 443.025,468.925 442.925,464.825 		"/>
		<polyline fill="none" stroke="#999999" stroke-width="0.25" stroke-linecap="round" stroke-linejoin="round" points="
			461.025,464.525 456.525,465.925 454.325,463.425 455.725,459.925 458.725,457.425 463.725,460.525 461.025,464.525 		"/>
		
			<line fill="none" stroke="#999999" stroke-width="0.25" stroke-linecap="round" stroke-linejoin="round" x1="315.725" y1="427.925" x2="314.625" y2="421.725"/>
		<polyline fill="none" stroke="#999999" stroke-width="0.25" stroke-linecap="round" stroke-linejoin="round" points="
			359.925,444.625 357.025,438.925 357.625,435.525 354.925,433.725 353.525,429.025 347.625,424.425 342.325,429.225 
			338.925,439.425 334.625,444.925 327.525,443.125 321.725,446.725 318.025,441.125 320.025,434.625 315.725,427.925 		"/>
		<polyline fill="none" stroke="#999999" stroke-width="0.25" stroke-linecap="round" stroke-linejoin="round" points="
			359.925,444.725 359.925,444.625 367.625,426.825 		"/>
		<polyline fill="none" stroke="#999999" stroke-width="0.25" stroke-linecap="round" stroke-linejoin="round" points="
			423.525,525.525 427.825,518.825 434.325,516.925 433.225,513.825 437.925,508.425 441.625,509.425 443.725,497.525 
			453.225,487.325 446.125,480.125 445.925,474.025 		"/>
		
			<line fill="none" stroke="#999999" stroke-width="0.25" stroke-linecap="round" stroke-linejoin="round" x1="416.725" y1="519.325" x2="416.725" y2="519.325"/>
	</g>
</g>
<g id="Calque_2">
	<g>
		<g>
			<path fill="#333333" d="M623.825,609.825c-0.5,0-0.9-0.1-1.1-0.3c-0.2-0.2-0.3-0.5-0.3-1.1c0-0.4,0-0.7,0.2-0.8
				c0.1-0.1,0.4-0.3,0.8-0.3h3.1v-0.6h-3c-1.2,0-1.7,0.5-1.7,1.6c0,0.8,0.3,1.3,0.8,1.7c-0.5,0.1-0.8,0.6-0.8,1.4
				c0,0.7,0.3,1.2,0.8,1.5l0,0h-0.7v0.7h4.6v-0.7h-2.6c-1,0-1.5-0.4-1.5-1.4c0-0.7,0.3-1,0.9-1h3.2v-0.7H623.825z"/>
			<path fill="#333333" d="M626.125,615.025c-0.3-0.2-0.9-0.4-1.9-0.4s-1.7,0.2-2,0.4c-0.2,0.3-0.4,0.8-0.4,1.7
				c0,0.8,0.2,1.4,0.4,1.7c0.3,0.2,1,0.4,2,0.4s1.6-0.2,1.9-0.4c0.3-0.3,0.5-0.9,0.5-1.7
				C626.625,615.825,626.425,615.325,626.125,615.025z M624.225,615.325c0.8,0,1.3,0.1,1.5,0.3c0.2,0.1,0.3,0.5,0.3,1.1
				c0,0.6-0.1,1-0.3,1.1c-0.2,0.2-0.7,0.2-1.5,0.2c-0.9,0-1.4,0-1.5-0.2c-0.2-0.1-0.3-0.5-0.3-1.1c0-0.6,0.1-1,0.3-1.1
				C622.825,615.425,623.325,615.325,624.225,615.325z"/>
			<path fill="#333333" d="M622.525,620.625c0.2-0.2,0.4-0.3,0.8-0.3h0.1v-0.6c-0.6,0-1,0.1-1.2,0.4c-0.3,0.2-0.4,0.8-0.4,1.5
				c0,0.8,0.2,1.3,0.5,1.6c0.3,0.3,0.9,0.4,1.9,0.4c0.9,0,1.6-0.1,1.9-0.4c0.3-0.2,0.5-0.8,0.5-1.7c0-1.3-0.5-1.9-1.5-1.9h-0.3v0.7
				c0.6,0,0.9,0,1,0.2c0.2,0.1,0.2,0.4,0.2,1s-0.1,1-0.3,1.1c-0.2,0.2-0.7,0.3-1.5,0.3c-0.8,0-1.3-0.1-1.5-0.2
				c-0.2-0.2-0.3-0.5-0.3-1C622.425,621.125,622.425,620.825,622.525,620.625z"/>
			<path fill="#333333" d="M626.525,624.725h-0.9v0.7h0.9V624.725z"/>
			<path fill="#333333" d="M623.825,628.925c0,0.5-0.3,0.7-0.7,0.7c-0.3,0-0.5,0-0.6-0.2c-0.1-0.1-0.1-0.4-0.1-0.9
				c0-0.6,0-0.9,0.1-1.1c0-0.1,0.2-0.2,0.6-0.2v-0.6h-0.2c-0.7,0-1.1,0.6-1.1,1.8c0,0.8,0.1,1.3,0.3,1.6c0.1,0.2,0.5,0.3,1,0.3
				s0.9-0.1,1.1-0.4c0.2-0.4,0.3-1,0.3-2.1c0-0.4,0.2-0.7,0.7-0.7c0.3,0,0.6,0.1,0.7,0.3c0.1,0.2,0.1,0.6,0.1,1.1s0,0.8-0.1,0.9
				c-0.1,0.2-0.3,0.3-0.6,0.3h-0.3v0.7h0.3c0.5,0,0.8-0.2,1-0.4c0.2-0.3,0.3-0.9,0.3-1.6c0-0.8-0.1-1.3-0.3-1.6
				c-0.2-0.2-0.5-0.4-1.1-0.4c-0.8,0-1.3,0.4-1.3,1.3L623.825,628.925z"/>
			<path fill="#333333" d="M620.725,632.125v-0.7h-0.8v0.7H620.725z"/>
			<path fill="#333333" d="M622.525,634.125c0-0.2,0.2-0.2,0.6-0.2v-0.7h-0.2c-0.7,0-1.1,0.6-1.1,1.9c0,0.7,0.1,1.3,0.3,1.5
				c0.1,0.3,0.5,0.4,1,0.4s0.9-0.2,1.1-0.5c0.2-0.3,0.3-1,0.3-2c0-0.5,0.2-0.7,0.7-0.7c0.3,0,0.6,0.1,0.7,0.3
				c0.1,0.1,0.1,0.5,0.1,1.1c0,0.4,0,0.7-0.1,0.9c-0.1,0.1-0.3,0.2-0.6,0.2h-0.3v0.7h0.3c0.5,0,0.8-0.1,1-0.4
				c0.2-0.3,0.3-0.8,0.3-1.6c0-0.7-0.1-1.2-0.3-1.5c-0.2-0.3-0.5-0.4-1.1-0.4c-0.8,0-1.3,0.4-1.3,1.2l-0.1,1.3
				c0,0.4-0.3,0.7-0.7,0.7c-0.3,0-0.5-0.1-0.6-0.2c-0.1-0.2-0.1-0.5-0.1-1S622.425,634.225,622.525,634.125z"/>
			<path fill="#333333" d="M621.925,631.425v0.7h4.6v-0.7H621.925z"/>
			<path fill="#333333" d="M622.425,640.125L622.425,640.125h-0.5v0.7h4.6v-0.7h-2.8c-0.9,0-1.4-0.4-1.4-1.2c0-0.5,0.3-0.8,0.7-0.8
				c0.1,0,0.1,0,0.3,0.1h0.1v-0.7h-0.3c-0.9,0-1.3,0.4-1.3,1.3C621.825,639.425,622.025,639.925,622.425,640.125z"/>
			<path fill="#333333" d="M621.825,644.025c0,0.8,0.2,1.4,0.5,1.6c0.3,0.3,0.9,0.4,1.8,0.4c1.1,0,1.7-0.1,2-0.4
				c0.3-0.2,0.5-0.8,0.5-1.7c0-0.7-0.1-1.2-0.3-1.5c-0.2-0.3-0.5-0.5-1-0.5h-0.2v0.7h0.2c0.3,0,0.5,0.1,0.6,0.3
				c0.1,0.1,0.1,0.5,0.1,1c0,0.6-0.1,1-0.3,1.1c-0.2,0.2-0.6,0.3-1.4,0.3v-3.4h-0.3c-0.9,0-1.5,0.2-1.8,0.5
				C622.025,642.625,621.825,643.225,621.825,644.025z M622.625,645.025c-0.1-0.1-0.2-0.5-0.2-1c0-0.6,0-1,0.2-1.1
				c0.1-0.2,0.5-0.3,1-0.3h0.2v2.7C623.225,645.325,622.825,645.225,622.625,645.025z"/>
			<path fill="#333333" d="M623.825,650.325c-0.5,0-0.9-0.1-1.1-0.3c-0.2-0.2-0.3-0.5-0.3-1.1c0-0.4,0-0.6,0.2-0.8
				c0.1-0.1,0.4-0.2,0.8-0.2h3.1v-0.7h-3c-1.2,0-1.7,0.6-1.7,1.7c0,0.7,0.3,1.3,0.8,1.6c-0.5,0.1-0.8,0.6-0.8,1.4
				c0,0.8,0.3,1.3,0.8,1.5v0.1l-0.7-0.1v0.7h4.6v-0.7h-2.6c-1,0-1.5-0.4-1.5-1.4c0-0.6,0.3-1,0.9-1h3.2v-0.7H623.825z"/>
			<path fill="#333333" d="M626.125,655.625c-0.3-0.3-0.9-0.4-1.9-0.4s-1.7,0.1-2,0.4c-0.2,0.2-0.4,0.8-0.4,1.6
				c0,0.9,0.2,1.5,0.4,1.7c0.3,0.3,1,0.4,2,0.4s1.6-0.1,1.9-0.4c0.3-0.2,0.5-0.8,0.5-1.7
				C626.625,656.425,626.425,655.825,626.125,655.625z M624.225,655.925c0.8,0,1.3,0.1,1.5,0.2c0.2,0.2,0.3,0.5,0.3,1.1
				c0,0.7-0.1,1-0.3,1.2c-0.2,0.2-0.7,0.2-1.5,0.2c-0.9,0-1.4,0-1.5-0.2c-0.2-0.2-0.3-0.5-0.3-1.2c0-0.6,0.1-0.9,0.3-1.1
				C622.825,656.025,623.325,655.925,624.225,655.925z"/>
			<path fill="#333333" d="M622.525,661.225c0.2-0.2,0.4-0.3,0.8-0.3h0.1v-0.7c-0.6,0-1,0.2-1.2,0.4c-0.3,0.3-0.4,0.8-0.4,1.6
				c0,0.7,0.2,1.3,0.5,1.5c0.3,0.3,0.9,0.5,1.9,0.5c0.9,0,1.6-0.2,1.9-0.4c0.3-0.3,0.5-0.9,0.5-1.7c0-1.3-0.5-2-1.5-2h-0.3v0.7
				c0.6,0,0.9,0.1,1,0.2c0.2,0.2,0.2,0.5,0.2,1c0,0.6-0.1,1-0.3,1.2c-0.2,0.1-0.7,0.2-1.5,0.2c-0.8,0-1.3,0-1.5-0.2
				c-0.2-0.1-0.3-0.4-0.3-1C622.425,661.725,622.425,661.325,622.525,661.225z"/>
			<g>
				<path fill="#333333" d="M621.525,668.225c-0.7,0.4-1.2,0.9-1.6,1.7c-0.4,0.7-0.6,1.4-0.6,2.1c0,0.8,0.2,1.5,0.6,2.2
					c0.4,0.7,0.9,1.3,1.6,1.7c0.8,0.4,1.5,0.6,2.2,0.6c0.8,0,1.5-0.2,2.2-0.6c0.7-0.4,1.3-1,1.7-1.7c0.3-0.7,0.5-1.4,0.5-2.2
					c0-0.7-0.2-1.5-0.5-2.2c-0.4-0.7-1-1.2-1.7-1.6c-0.7-0.4-1.4-0.5-2.2-0.5C623.025,667.725,622.325,667.825,621.525,668.225z
					 M620.625,670.225c0.3-0.6,0.7-1,1.3-1.4c0.6-0.3,1.2-0.5,1.8-0.5c0.7,0,1.3,0.2,1.8,0.5c0.6,0.4,1.1,0.8,1.4,1.4
					c0.3,0.6,0.5,1.2,0.5,1.8c0,0.7-0.2,1.3-0.5,1.9c-0.3,0.5-0.8,1-1.4,1.3c-0.5,0.4-1.1,0.5-1.8,0.5c-0.6,0-1.2-0.1-1.8-0.5
					c-0.6-0.3-1-0.8-1.3-1.4c-0.4-0.5-0.5-1.1-0.5-1.8C620.125,671.425,620.225,670.825,620.625,670.225z"/>
				<path fill="#333333" d="M624.625,669.925l-0.2,0.7c0.4,0.1,0.6,0.3,0.9,0.5c0.2,0.3,0.3,0.6,0.3,1s-0.2,0.8-0.5,1
					c-0.3,0.3-0.8,0.5-1.4,0.5c-0.5,0-1-0.2-1.3-0.5c-0.3-0.3-0.5-0.6-0.5-1.1c0-0.3,0.1-0.6,0.3-0.8c0.1-0.2,0.3-0.4,0.6-0.5
					l-0.1-0.7c-0.5,0.1-0.8,0.3-1,0.7c-0.3,0.3-0.4,0.8-0.4,1.3s0.1,0.9,0.3,1.2c0.2,0.4,0.5,0.7,0.8,0.9c0.4,0.1,0.9,0.3,1.3,0.3
					c0.8,0,1.4-0.3,1.9-0.7c0.4-0.4,0.6-1,0.6-1.7c0-0.5-0.1-1-0.4-1.4C625.525,670.325,625.125,670.025,624.625,669.925z"/>
			</g>
		</g>
	</g>
</g>
</svg>
